<?xml version="1.0" encoding="UTF-8" standalone="no"?>
<!DOCTYPE svg PUBLIC "-//W3C//DTD SVG 1.1//EN"
 "http://www.w3.org/Graphics/SVG/1.1/DTD/svg11.dtd">
<!-- Generated by graphviz version 2.38.0 (20140413.2041)
 -->
<!-- Title: G Pages: 1 -->
<svg width="2286pt" height="1473pt"
 viewBox="0.00 0.00 2286.00 1473.00" xmlns="http://www.w3.org/2000/svg" xmlns:xlink="http://www.w3.org/1999/xlink">
<g id="graph0" class="graph" transform="scale(1 1) rotate(0) translate(4 1469)">
<title>G</title>
<polygon fill="white" stroke="none" points="-4,4 -4,-1469 2282,-1469 2282,4 -4,4"/>
<text text-anchor="start" x="844.5" y="-1422.6" font-family="Times New Roman,serif" font-size="48.00">Proposition I.47 Dependencies</text>
<!-- Post.1 -->
<g id="node1" class="node"><title>Post.1</title>
<g id="a_node1"><a xlink:href="https://mathcs.clarku.edu/~djoyce/elements/bookI/post1.html" xlink:title="Post.1">
<ellipse fill="lightblue" stroke="black" cx="798" cy="-1386" rx="34.394" ry="18"/>
<text text-anchor="middle" x="798" y="-1382.3" font-family="Times New Roman,serif" font-size="14.00">Post.1</text>
</a>
</g>
</g>
<!-- I.47 -->
<g id="node18" class="node"><title>I.47</title>
<g id="a_node18"><a xlink:href="https://mathcs.clarku.edu/~djoyce/elements/bookI/propI47.html" xlink:title="I.47">
<ellipse fill="gold" stroke="black" cx="232" cy="-18" rx="27" ry="18"/>
<text text-anchor="middle" x="232" y="-14.3" font-family="Times New Roman,serif" font-size="14.00">I.47</text>
</a>
</g>
</g>
<!-- Post.1&#45;&gt;I.47 -->
<g id="edge3" class="edge"><title>Post.1&#45;&gt;I.47</title>
<path fill="none" stroke="green" d="M767.424,-1377.52C752.082,-1374.06 733.157,-1370.23 716,-1368 642.841,-1358.48 116.127,-1370.18 53,-1332 13.6069,-1308.17 0,-1289.04 0,-1243 0,-1243 0,-1243 0,-161 0,-114.266 18.8192,-100.314 56,-72 97.1904,-40.6325 156.864,-27.7363 195.047,-22.4976"/>
<polygon fill="green" stroke="green" points="195.731,-25.9391 205.214,-21.214 194.854,-18.9942 195.731,-25.9391"/>
</g>
<!-- I.31 -->
<g id="node21" class="node"><title>I.31</title>
<g id="a_node21"><a xlink:href="https://mathcs.clarku.edu/~djoyce/elements/bookI/propI31.html" xlink:title="I.31">
<ellipse fill="lightyellow" stroke="black" cx="511" cy="-234" rx="27" ry="18"/>
<text text-anchor="middle" x="511" y="-230.3" font-family="Times New Roman,serif" font-size="14.00">I.31</text>
</a>
</g>
</g>
<!-- Post.1&#45;&gt;I.31 -->
<g id="edge16" class="edge"><title>Post.1&#45;&gt;I.31</title>
<path fill="none" stroke="green" d="M767.421,-1377.54C752.079,-1374.08 733.154,-1370.25 716,-1368 645.822,-1358.79 134.949,-1376.61 80,-1332 48.1948,-1306.18 56,-1283.97 56,-1243 56,-1243 56,-1243 56,-1025 56,-929.474 76,-906.526 76,-811 76,-811 76,-811 76,-593 76,-385.704 374.157,-276.269 476.783,-244.741"/>
<polygon fill="green" stroke="green" points="477.803,-248.089 486.366,-241.85 475.781,-241.387 477.803,-248.089"/>
</g>
<!-- I.41 -->
<g id="node22" class="node"><title>I.41</title>
<g id="a_node22"><a xlink:href="https://mathcs.clarku.edu/~djoyce/elements/bookI/propI41.html" xlink:title="I.41">
<ellipse fill="lightyellow" stroke="black" cx="481" cy="-90" rx="27" ry="18"/>
<text text-anchor="middle" x="481" y="-86.3" font-family="Times New Roman,serif" font-size="14.00">I.41</text>
</a>
</g>
</g>
<!-- Post.1&#45;&gt;I.41 -->
<g id="edge20" class="edge"><title>Post.1&#45;&gt;I.41</title>
<path fill="none" stroke="green" d="M766.964,-1377.92C751.675,-1374.6 732.93,-1370.77 716,-1368 576.868,-1345.22 94,-1383.99 94,-1243 94,-1243 94,-1243 94,-1025 94,-926.686 38,-909.314 38,-811 38,-811 38,-811 38,-593 38,-413.479 63.4778,-349.949 183,-216 253.443,-137.054 381.822,-106.587 444.547,-96.0153"/>
<polygon fill="green" stroke="green" points="445.432,-99.418 454.75,-94.3748 444.321,-92.5067 445.432,-99.418"/>
</g>
<!-- I.11 -->
<g id="node25" class="node"><title>I.11</title>
<g id="a_node25"><a xlink:href="https://mathcs.clarku.edu/~djoyce/elements/bookI/propI11.html" xlink:title="I.11">
<ellipse fill="lightyellow" stroke="black" cx="491" cy="-882" rx="27" ry="18"/>
<text text-anchor="middle" x="491" y="-878.3" font-family="Times New Roman,serif" font-size="14.00">I.11</text>
</a>
</g>
</g>
<!-- Post.1&#45;&gt;I.11 -->
<g id="edge36" class="edge"><title>Post.1&#45;&gt;I.11</title>
<path fill="none" stroke="green" d="M766.915,-1378.17C661.383,-1354.84 322.543,-1278.72 308,-1260 245.497,-1179.55 368.747,-953.23 384,-936 403.117,-914.405 433.058,-900.629 456.411,-892.551"/>
<polygon fill="green" stroke="green" points="457.546,-895.862 465.966,-889.431 455.373,-889.208 457.546,-895.862"/>
</g>
<!-- I.23 -->
<g id="node27" class="node"><title>I.23</title>
<g id="a_node27"><a xlink:href="https://mathcs.clarku.edu/~djoyce/elements/bookI/propI23.html" xlink:title="I.23">
<ellipse fill="lightyellow" stroke="black" cx="659" cy="-306" rx="27" ry="18"/>
<text text-anchor="middle" x="659" y="-302.3" font-family="Times New Roman,serif" font-size="14.00">I.23</text>
</a>
</g>
</g>
<!-- Post.1&#45;&gt;I.23 -->
<g id="edge44" class="edge"><title>Post.1&#45;&gt;I.23</title>
<path fill="none" stroke="green" d="M767.402,-1377.68C752.055,-1374.26 733.132,-1370.42 716,-1368 611.399,-1353.25 333.484,-1384.82 242,-1332 166.949,-1288.67 132,-1257.66 132,-1171 132,-1171 132,-1171 132,-1025 132,-683.596 524.014,-397.004 631.839,-324.633"/>
<polygon fill="green" stroke="green" points="633.857,-327.495 640.244,-319.041 629.979,-321.667 633.857,-327.495"/>
</g>
<!-- I.1 -->
<g id="node32" class="node"><title>I.1</title>
<g id="a_node32"><a xlink:href="https://mathcs.clarku.edu/~djoyce/elements/bookI/propI1.html" xlink:title="I.1">
<ellipse fill="lightyellow" stroke="black" cx="667" cy="-1314" rx="27" ry="18"/>
<text text-anchor="middle" x="667" y="-1310.3" font-family="Times New Roman,serif" font-size="14.00">I.1</text>
</a>
</g>
</g>
<!-- Post.1&#45;&gt;I.1 -->
<g id="edge63" class="edge"><title>Post.1&#45;&gt;I.1</title>
<path fill="none" stroke="green" d="M774.881,-1372.65C753.094,-1361 720.342,-1343.5 696.643,-1330.84"/>
<polygon fill="green" stroke="green" points="698.2,-1327.7 687.73,-1326.08 694.901,-1333.88 698.2,-1327.7"/>
</g>
<!-- I.2 -->
<g id="node33" class="node"><title>I.2</title>
<g id="a_node33"><a xlink:href="https://mathcs.clarku.edu/~djoyce/elements/bookI/propI2.html" xlink:title="I.2">
<ellipse fill="lightyellow" stroke="black" cx="967" cy="-1242" rx="27" ry="18"/>
<text text-anchor="middle" x="967" y="-1238.3" font-family="Times New Roman,serif" font-size="14.00">I.2</text>
</a>
</g>
</g>
<!-- Post.1&#45;&gt;I.2 -->
<g id="edge67" class="edge"><title>Post.1&#45;&gt;I.2</title>
<path fill="none" stroke="green" d="M806.681,-1368.39C817.493,-1348.99 837.554,-1316.9 862,-1296 883.265,-1277.82 911.845,-1263.92 933.819,-1254.92"/>
<polygon fill="green" stroke="green" points="935.385,-1258.07 943.4,-1251.14 932.813,-1251.56 935.385,-1258.07"/>
</g>
<!-- I.16 -->
<g id="node36" class="node"><title>I.16</title>
<g id="a_node36"><a xlink:href="https://mathcs.clarku.edu/~djoyce/elements/bookI/propI16.html" xlink:title="I.16">
<ellipse fill="lightyellow" stroke="black" cx="1219" cy="-666" rx="27" ry="18"/>
<text text-anchor="middle" x="1219" y="-662.3" font-family="Times New Roman,serif" font-size="14.00">I.16</text>
</a>
</g>
</g>
<!-- Post.1&#45;&gt;I.16 -->
<g id="edge81" class="edge"><title>Post.1&#45;&gt;I.16</title>
<path fill="none" stroke="green" d="M806.543,-1368.34C845.875,-1292.05 1014.63,-969.028 1179,-720 1185.54,-710.084 1193.3,-699.562 1200.24,-690.529"/>
<polygon fill="green" stroke="green" points="1203.19,-692.436 1206.57,-682.394 1197.66,-688.138 1203.19,-692.436"/>
</g>
<!-- I.22 -->
<g id="node37" class="node"><title>I.22</title>
<g id="a_node37"><a xlink:href="https://mathcs.clarku.edu/~djoyce/elements/bookI/propI22.html" xlink:title="I.22">
<ellipse fill="lightyellow" stroke="black" cx="911" cy="-378" rx="27" ry="18"/>
<text text-anchor="middle" x="911" y="-374.3" font-family="Times New Roman,serif" font-size="14.00">I.22</text>
</a>
</g>
</g>
<!-- Post.1&#45;&gt;I.22 -->
<g id="edge91" class="edge"><title>Post.1&#45;&gt;I.22</title>
<path fill="none" stroke="green" d="M793.207,-1368.13C776.172,-1308.55 716.39,-1102.62 657,-936 642.536,-895.419 593.147,-798.304 585,-756 581.974,-740.289 581.955,-735.708 585,-720 605.386,-614.824 605.773,-567.579 692,-504 758.015,-455.324 809.316,-519.688 873,-468 891.996,-452.582 901.676,-425.908 906.493,-405.772"/>
<polygon fill="green" stroke="green" points="909.928,-406.442 908.592,-395.932 903.082,-404.982 909.928,-406.442"/>
</g>
<!-- I.26 -->
<g id="node38" class="node"><title>I.26</title>
<g id="a_node38"><a xlink:href="https://mathcs.clarku.edu/~djoyce/elements/bookI/propI26.html" xlink:title="I.26">
<ellipse fill="lightyellow" stroke="black" cx="1109" cy="-594" rx="27" ry="18"/>
<text text-anchor="middle" x="1109" y="-590.3" font-family="Times New Roman,serif" font-size="14.00">I.26</text>
</a>
</g>
</g>
<!-- Post.1&#45;&gt;I.26 -->
<g id="edge95" class="edge"><title>Post.1&#45;&gt;I.26</title>
<path fill="none" stroke="green" d="M829.415,-1378.59C845.687,-1375.32 865.89,-1371.34 884,-1368 930.561,-1359.41 1063.48,-1368.2 1094,-1332 1104.31,-1319.77 1095.53,-1311.93 1094,-1296 1079.27,-1142.34 1028,-1109.37 1028,-955 1028,-955 1028,-955 1028,-809 1028,-745.967 1074.93,-743.753 1095,-684 1101.75,-663.891 1105.28,-640.11 1107.1,-622.191"/>
<polygon fill="green" stroke="green" points="1110.6,-622.408 1108.01,-612.134 1103.63,-621.778 1110.6,-622.408"/>
</g>
<!-- I.7 -->
<g id="node40" class="node"><title>I.7</title>
<g id="a_node40"><a xlink:href="https://mathcs.clarku.edu/~djoyce/elements/bookI/propI7.html" xlink:title="I.7">
<ellipse fill="lightyellow" stroke="black" cx="1235" cy="-1026" rx="27" ry="18"/>
<text text-anchor="middle" x="1235" y="-1022.3" font-family="Times New Roman,serif" font-size="14.00">I.7</text>
</a>
</g>
</g>
<!-- Post.1&#45;&gt;I.7 -->
<g id="edge105" class="edge"><title>Post.1&#45;&gt;I.7</title>
<path fill="none" stroke="green" d="M829.368,-1378.32C845.628,-1374.99 865.834,-1371.02 884,-1368 1070.24,-1337.02 1290,-1431.8 1290,-1243 1290,-1243 1290,-1243 1290,-1169 1290,-1128.55 1286.88,-1117.2 1271,-1080 1266.61,-1069.72 1260.12,-1059.34 1253.85,-1050.53"/>
<polygon fill="green" stroke="green" points="1256.52,-1048.24 1247.75,-1042.3 1250.89,-1052.41 1256.52,-1048.24"/>
</g>
<!-- I.20 -->
<g id="node42" class="node"><title>I.20</title>
<g id="a_node42"><a xlink:href="https://mathcs.clarku.edu/~djoyce/elements/bookI/propI20.html" xlink:title="I.20">
<ellipse fill="lightyellow" stroke="black" cx="1670" cy="-450" rx="27" ry="18"/>
<text text-anchor="middle" x="1670" y="-446.3" font-family="Times New Roman,serif" font-size="14.00">I.20</text>
</a>
</g>
</g>
<!-- Post.1&#45;&gt;I.20 -->
<g id="edge115" class="edge"><title>Post.1&#45;&gt;I.20</title>
<path fill="none" stroke="green" d="M829.316,-1377.98C845.561,-1374.55 865.771,-1370.61 884,-1368 1061.13,-1342.61 1108.42,-1360.96 1285,-1332 1420.31,-1309.81 1453.42,-1298.57 1585,-1260 1923.69,-1160.72 2240,-1163.94 2240,-811 2240,-811 2240,-811 2240,-593 2240,-482.881 1834.38,-457.499 1707.48,-452.253"/>
<polygon fill="green" stroke="green" points="1707.24,-448.741 1697.11,-451.844 1706.96,-455.736 1707.24,-448.741"/>
</g>
<!-- I.5 -->
<g id="node43" class="node"><title>I.5</title>
<g id="a_node43"><a xlink:href="https://mathcs.clarku.edu/~djoyce/elements/bookI/propI5.html" xlink:title="I.5">
<ellipse fill="lightyellow" stroke="black" cx="1670" cy="-1098" rx="27" ry="18"/>
<text text-anchor="middle" x="1670" y="-1094.3" font-family="Times New Roman,serif" font-size="14.00">I.5</text>
</a>
</g>
</g>
<!-- Post.1&#45;&gt;I.5 -->
<g id="edge122" class="edge"><title>Post.1&#45;&gt;I.5</title>
<path fill="none" stroke="green" d="M828.909,-1378.04C845.221,-1374.58 865.615,-1370.6 884,-1368 1196.13,-1323.91 1315.85,-1424.09 1585,-1260 1621.56,-1237.71 1629.26,-1225.99 1649,-1188 1659.03,-1168.69 1664.34,-1144.54 1667.11,-1126.27"/>
<polygon fill="green" stroke="green" points="1670.59,-1126.65 1668.46,-1116.27 1663.65,-1125.71 1670.59,-1126.65"/>
</g>
<!-- I.9 -->
<g id="node44" class="node"><title>I.9</title>
<g id="a_node44"><a xlink:href="https://mathcs.clarku.edu/~djoyce/elements/bookI/propI9.html" xlink:title="I.9">
<ellipse fill="lightyellow" stroke="black" cx="1766" cy="-882" rx="27" ry="18"/>
<text text-anchor="middle" x="1766" y="-878.3" font-family="Times New Roman,serif" font-size="14.00">I.9</text>
</a>
</g>
</g>
<!-- Post.1&#45;&gt;I.9 -->
<g id="edge126" class="edge"><title>Post.1&#45;&gt;I.9</title>
<path fill="none" stroke="green" d="M828.882,-1377.84C845.187,-1374.33 865.582,-1370.35 884,-1368 1152.51,-1333.67 1232.16,-1407.88 1492,-1332 1639.51,-1288.92 1682.26,-1247.37 1762,-1116 1804.01,-1046.79 1807.08,-1015.14 1790,-936 1787.96,-926.531 1784.08,-916.718 1780.02,-908.148"/>
<polygon fill="green" stroke="green" points="1783.08,-906.443 1775.46,-899.085 1776.83,-909.591 1783.08,-906.443"/>
</g>
<!-- I.18 -->
<g id="node46" class="node"><title>I.18</title>
<g id="a_node46"><a xlink:href="https://mathcs.clarku.edu/~djoyce/elements/bookI/propI18.html" xlink:title="I.18">
<ellipse fill="lightyellow" stroke="black" cx="1763" cy="-594" rx="27" ry="18"/>
<text text-anchor="middle" x="1763" y="-590.3" font-family="Times New Roman,serif" font-size="14.00">I.18</text>
</a>
</g>
</g>
<!-- Post.1&#45;&gt;I.18 -->
<g id="edge133" class="edge"><title>Post.1&#45;&gt;I.18</title>
<path fill="none" stroke="green" d="M828.861,-1377.66C845.16,-1374.1 865.556,-1370.14 884,-1368 994.552,-1355.17 1782.77,-1375.99 1885,-1332 2063.34,-1255.26 2202.98,-1200.54 2178,-1008 2169.48,-942.359 2177.62,-918.46 2140,-864 2048.12,-731 1868.04,-640.994 1794.96,-608.48"/>
<polygon fill="green" stroke="green" points="1795.94,-605.089 1785.38,-604.275 1793.13,-611.499 1795.94,-605.089"/>
</g>
<!-- Post.2 -->
<g id="node2" class="node"><title>Post.2</title>
<g id="a_node2"><a xlink:href="https://mathcs.clarku.edu/~djoyce/elements/bookI/post2.html" xlink:title="Post.2">
<ellipse fill="lightblue" stroke="black" cx="1051" cy="-1314" rx="34.394" ry="18"/>
<text text-anchor="middle" x="1051" y="-1310.3" font-family="Times New Roman,serif" font-size="14.00">Post.2</text>
</a>
</g>
</g>
<!-- I.14 -->
<g id="node20" class="node"><title>I.14</title>
<g id="a_node20"><a xlink:href="https://mathcs.clarku.edu/~djoyce/elements/bookI/propI14.html" xlink:title="I.14">
<ellipse fill="lightyellow" stroke="black" cx="283" cy="-738" rx="27" ry="18"/>
<text text-anchor="middle" x="283" y="-734.3" font-family="Times New Roman,serif" font-size="14.00">I.14</text>
</a>
</g>
</g>
<!-- Post.2&#45;&gt;I.14 -->
<g id="edge11" class="edge"><title>Post.2&#45;&gt;I.14</title>
<path fill="none" stroke="green" d="M1019.11,-1307.06C959.986,-1295.84 837.904,-1271.61 822,-1260 686.614,-1161.18 742.844,-1059.02 629,-936 591.311,-895.274 578.476,-884.722 527,-864 428.166,-824.214 362.566,-906.008 290,-828 274.788,-811.647 274.484,-785.504 277.124,-765.774"/>
<polygon fill="green" stroke="green" points="280.586,-766.289 278.763,-755.852 273.68,-765.148 280.586,-766.289"/>
</g>
<!-- Post.2&#45;&gt;I.31 -->
<g id="edge18" class="edge"><title>Post.2&#45;&gt;I.31</title>
<path fill="none" stroke="green" d="M1018.22,-1308.4C984.855,-1302.29 933.168,-1288.71 898,-1260 768.337,-1154.14 795.394,-1077.52 706,-936 654.519,-854.503 637.688,-836.722 585,-756 538.701,-685.066 483,-679.707 483,-595 483,-595 483,-595 483,-521 483,-425.484 498.66,-312.875 506.557,-262.161"/>
<polygon fill="green" stroke="green" points="510.055,-262.453 508.161,-252.028 503.141,-261.358 510.055,-262.453"/>
</g>
<!-- I.37 -->
<g id="node31" class="node"><title>I.37</title>
<g id="a_node31"><a xlink:href="https://mathcs.clarku.edu/~djoyce/elements/bookI/propI37.html" xlink:title="I.37">
<ellipse fill="lightyellow" stroke="black" cx="687" cy="-162" rx="27" ry="18"/>
<text text-anchor="middle" x="687" y="-158.3" font-family="Times New Roman,serif" font-size="14.00">I.37</text>
</a>
</g>
</g>
<!-- Post.2&#45;&gt;I.37 -->
<g id="edge58" class="edge"><title>Post.2&#45;&gt;I.37</title>
<path fill="none" stroke="green" d="M1019.47,-1306.62C992.468,-1299.59 954.355,-1285.71 931,-1260 928.343,-1257.08 753.246,-723.749 752,-720 725.4,-639.978 718.164,-620.166 692,-540 655.971,-429.608 595.781,-400.887 623,-288 632.071,-250.381 654.496,-211.359 670.229,-187.134"/>
<polygon fill="green" stroke="green" points="673.274,-188.876 675.889,-178.609 667.442,-185.004 673.274,-188.876"/>
</g>
<!-- Post.2&#45;&gt;I.2 -->
<g id="edge69" class="edge"><title>Post.2&#45;&gt;I.2</title>
<path fill="none" stroke="green" d="M1033.19,-1298.15C1020.98,-1287.98 1004.65,-1274.37 991.257,-1263.21"/>
<polygon fill="green" stroke="green" points="993.287,-1260.35 983.364,-1256.64 988.806,-1265.73 993.287,-1260.35"/>
</g>
<!-- Post.2&#45;&gt;I.16 -->
<g id="edge82" class="edge"><title>Post.2&#45;&gt;I.16</title>
<path fill="none" stroke="green" d="M1059.34,-1296.15C1064.15,-1285.89 1070.02,-1272.42 1074,-1260 1108.97,-1150.93 1103.21,-1119.83 1128,-1008 1156.42,-879.795 1151.07,-844.104 1194,-720 1197.19,-710.779 1201.5,-701.028 1205.64,-692.439"/>
<polygon fill="green" stroke="green" points="1208.85,-693.837 1210.18,-683.325 1202.59,-690.718 1208.85,-693.837"/>
</g>
<!-- Post.2&#45;&gt;I.22 -->
<g id="edge88" class="edge"><title>Post.2&#45;&gt;I.22</title>
<path fill="none" stroke="green" d="M1074.83,-1300.73C1122.82,-1274.48 1230,-1207.74 1271,-1116 1302.39,-1045.76 1336.27,-900.528 1255,-648 1243.29,-611.623 1234.92,-603.121 1208,-576 1185.63,-553.464 1008.16,-440.395 938.718,-396.479"/>
<polygon fill="green" stroke="green" points="940.365,-393.379 930.042,-390.996 936.625,-399.297 940.365,-393.379"/>
</g>
<!-- Post.2&#45;&gt;I.20 -->
<g id="edge113" class="edge"><title>Post.2&#45;&gt;I.20</title>
<path fill="none" stroke="green" d="M1085.24,-1311.87C1189.16,-1308.08 1499.58,-1294.14 1594,-1260 1754.67,-1201.9 1796.14,-1169.57 1912,-1044 1944.66,-1008.6 2126,-715.167 2126,-667 2126,-667 2126,-667 2126,-593 2126,-552.031 2132.94,-530.852 2102,-504 2043.41,-453.154 1800.88,-449.777 1707.18,-450.431"/>
<polygon fill="green" stroke="green" points="1706.99,-446.933 1697.03,-450.523 1707.06,-453.933 1706.99,-446.933"/>
</g>
<!-- Post.2&#45;&gt;I.5 -->
<g id="edge120" class="edge"><title>Post.2&#45;&gt;I.5</title>
<path fill="none" stroke="green" d="M1085.59,-1312.64C1184.69,-1311.11 1467.66,-1302.97 1548,-1260 1603.92,-1230.09 1641.72,-1162.1 1659.09,-1124.75"/>
<polygon fill="green" stroke="green" points="1662.33,-1126.08 1663.25,-1115.52 1655.95,-1123.2 1662.33,-1126.08"/>
</g>
<!-- Post.3 -->
<g id="node3" class="node"><title>Post.3</title>
<g id="a_node3"><a xlink:href="https://mathcs.clarku.edu/~djoyce/elements/bookI/post3.html" xlink:title="Post.3">
<ellipse fill="lightblue" stroke="black" cx="905" cy="-1314" rx="34.394" ry="18"/>
<text text-anchor="middle" x="905" y="-1310.3" font-family="Times New Roman,serif" font-size="14.00">Post.3</text>
</a>
</g>
</g>
<!-- I.3 -->
<g id="node24" class="node"><title>I.3</title>
<g id="a_node24"><a xlink:href="https://mathcs.clarku.edu/~djoyce/elements/bookI/propI3.html" xlink:title="I.3">
<ellipse fill="lightyellow" stroke="black" cx="667" cy="-1170" rx="27" ry="18"/>
<text text-anchor="middle" x="667" y="-1166.3" font-family="Times New Roman,serif" font-size="14.00">I.3</text>
</a>
</g>
</g>
<!-- Post.3&#45;&gt;I.3 -->
<g id="edge31" class="edge"><title>Post.3&#45;&gt;I.3</title>
<path fill="none" stroke="green" d="M872.657,-1307.38C838.893,-1300.38 785.465,-1286.04 746,-1260 720.013,-1242.85 697.246,-1215.05 682.912,-1195.08"/>
<polygon fill="green" stroke="green" points="685.717,-1192.98 677.12,-1186.79 679.978,-1196.99 685.717,-1192.98"/>
</g>
<!-- Post.3&#45;&gt;I.2 -->
<g id="edge70" class="edge"><title>Post.3&#45;&gt;I.2</title>
<path fill="none" stroke="green" d="M918.76,-1297.46C927.061,-1288.09 937.78,-1275.99 947.006,-1265.57"/>
<polygon fill="green" stroke="green" points="949.694,-1267.82 953.704,-1258.01 944.454,-1263.18 949.694,-1267.82"/>
</g>
<!-- Post.3&#45;&gt;I.22 -->
<g id="edge90" class="edge"><title>Post.3&#45;&gt;I.22</title>
<path fill="none" stroke="green" d="M935.723,-1305.49C958.699,-1298.09 988.541,-1284.26 1003,-1260 1011.19,-1246.26 1004.69,-1239.91 1003,-1224 983.11,-1037.29 914,-998.769 914,-811 914,-811 914,-811 914,-593 914,-525.949 912.509,-447.093 911.63,-406.391"/>
<polygon fill="green" stroke="green" points="915.124,-406.117 911.405,-396.197 908.126,-406.272 915.124,-406.117"/>
</g>
<!-- Post.4 -->
<g id="node4" class="node"><title>Post.4</title>
<g id="a_node4"><a xlink:href="https://mathcs.clarku.edu/~djoyce/elements/bookI/post4.html" xlink:title="Post.4">
<ellipse fill="lightblue" stroke="black" cx="366" cy="-810" rx="34.394" ry="18"/>
<text text-anchor="middle" x="366" y="-806.3" font-family="Times New Roman,serif" font-size="14.00">Post.4</text>
</a>
</g>
</g>
<!-- Post.4&#45;&gt;I.47 -->
<g id="edge6" class="edge"><title>Post.4&#45;&gt;I.47</title>
<path fill="none" stroke="green" d="M334.723,-802.242C308.126,-794.994 270.599,-780.997 247,-756 77.0559,-575.992 50,-482.556 50,-235 50,-235 50,-235 50,-161 50,-117.99 56.8236,-101.63 88,-72 117.708,-43.7657 163.717,-30.3256 195.705,-24.0951"/>
<polygon fill="green" stroke="green" points="196.34,-27.5371 205.559,-22.316 195.096,-20.6485 196.34,-27.5371"/>
</g>
<!-- Post.4&#45;&gt;I.14 -->
<g id="edge13" class="edge"><title>Post.4&#45;&gt;I.14</title>
<path fill="none" stroke="green" d="M348.398,-794.155C336.339,-783.985 320.197,-770.371 306.968,-759.214"/>
<polygon fill="green" stroke="green" points="309.07,-756.408 299.169,-752.637 304.557,-761.759 309.07,-756.408"/>
</g>
<!-- I.46 -->
<g id="node23" class="node"><title>I.46</title>
<g id="a_node23"><a xlink:href="https://mathcs.clarku.edu/~djoyce/elements/bookI/propI46.html" xlink:title="I.46">
<ellipse fill="lightyellow" stroke="black" cx="357" cy="-162" rx="27" ry="18"/>
<text text-anchor="middle" x="357" y="-158.3" font-family="Times New Roman,serif" font-size="14.00">I.46</text>
</a>
</g>
</g>
<!-- Post.4&#45;&gt;I.46 -->
<g id="edge28" class="edge"><title>Post.4&#45;&gt;I.46</title>
<path fill="none" stroke="green" d="M367.976,-791.978C370.89,-765.355 376,-712.226 376,-667 376,-667 376,-667 376,-305 376,-264.64 368.366,-218.392 362.776,-189.936"/>
<polygon fill="green" stroke="green" points="366.169,-189.057 360.754,-179.951 359.308,-190.447 366.169,-189.057"/>
</g>
<!-- I.15 -->
<g id="node35" class="node"><title>I.15</title>
<g id="a_node35"><a xlink:href="https://mathcs.clarku.edu/~djoyce/elements/bookI/propI15.html" xlink:title="I.15">
<ellipse fill="lightyellow" stroke="black" cx="859" cy="-738" rx="27" ry="18"/>
<text text-anchor="middle" x="859" y="-734.3" font-family="Times New Roman,serif" font-size="14.00">I.15</text>
</a>
</g>
</g>
<!-- Post.4&#45;&gt;I.15 -->
<g id="edge77" class="edge"><title>Post.4&#45;&gt;I.15</title>
<path fill="none" stroke="green" d="M398.729,-804.353C487.151,-791.798 730.374,-757.263 822.756,-744.146"/>
<polygon fill="green" stroke="green" points="823.339,-747.599 832.748,-742.727 822.355,-740.668 823.339,-747.599"/>
</g>
<!-- Post.5 -->
<g id="node5" class="node"><title>Post.5</title>
<g id="a_node5"><a xlink:href="https://mathcs.clarku.edu/~djoyce/elements/bookI/post5.html" xlink:title="Post.5">
<ellipse fill="lightblue" stroke="black" cx="628" cy="-738" rx="34.394" ry="18"/>
<text text-anchor="middle" x="628" y="-734.3" font-family="Times New Roman,serif" font-size="14.00">Post.5</text>
</a>
</g>
</g>
<!-- I.29 -->
<g id="node29" class="node"><title>I.29</title>
<g id="a_node29"><a xlink:href="https://mathcs.clarku.edu/~djoyce/elements/bookI/propI29.html" xlink:title="I.29">
<ellipse fill="lightyellow" stroke="black" cx="650" cy="-666" rx="27" ry="18"/>
<text text-anchor="middle" x="650" y="-662.3" font-family="Times New Roman,serif" font-size="14.00">I.29</text>
</a>
</g>
</g>
<!-- Post.5&#45;&gt;I.29 -->
<g id="edge50" class="edge"><title>Post.5&#45;&gt;I.29</title>
<path fill="none" stroke="green" d="M633.326,-720.055C635.839,-712.059 638.896,-702.331 641.703,-693.4"/>
<polygon fill="green" stroke="green" points="645.064,-694.378 644.723,-683.789 638.386,-692.28 645.064,-694.378"/>
</g>
<!-- C.N -->
<g id="node6" class="node"><title>C.N</title>
<g id="a_node6"><a xlink:href="https://mathcs.clarku.edu/~djoyce/elements/bookI/cn.html" xlink:title="C.N">
<ellipse fill="darksalmon" stroke="black" cx="1153" cy="-1098" rx="27" ry="18"/>
<text text-anchor="middle" x="1153" y="-1094.3" font-family="Times New Roman,serif" font-size="14.00">C.N</text>
</a>
</g>
</g>
<!-- C.N&#45;&gt;I.37 -->
<g id="edge62" class="edge"><title>C.N&#45;&gt;I.37</title>
<path fill="none" stroke="green" d="M1153.66,-1079.66C1156.02,-1015.45 1164,-785.039 1164,-595 1164,-595 1164,-595 1164,-305 1164,-213.24 835.647,-175.994 723.798,-165.969"/>
<polygon fill="green" stroke="green" points="723.935,-162.468 713.668,-165.083 723.325,-169.441 723.935,-162.468"/>
</g>
<!-- C.N&#45;&gt;I.7 -->
<g id="edge108" class="edge"><title>C.N&#45;&gt;I.7</title>
<path fill="none" stroke="green" d="M1169.2,-1083.17C1181.18,-1072.94 1197.69,-1058.85 1211.18,-1047.34"/>
<polygon fill="green" stroke="green" points="1213.78,-1049.72 1219.11,-1040.56 1209.23,-1044.39 1213.78,-1049.72"/>
</g>
<!-- C.N.1 -->
<g id="node7" class="node"><title>C.N.1</title>
<g id="a_node7"><a xlink:href="https://mathcs.clarku.edu/~djoyce/elements/bookI/cn.html" xlink:title="C.N.1">
<ellipse fill="darksalmon" stroke="black" cx="925" cy="-1386" rx="32.4942" ry="18"/>
<text text-anchor="middle" x="925" y="-1382.3" font-family="Times New Roman,serif" font-size="14.00">C.N.1</text>
</a>
</g>
</g>
<!-- C.N.1&#45;&gt;I.14 -->
<g id="edge14" class="edge"><title>C.N.1&#45;&gt;I.14</title>
<path fill="none" stroke="green" d="M895.125,-1378.63C879.107,-1375.29 859.012,-1371.24 841,-1368 551.02,-1315.79 208,-1465.64 208,-1171 208,-1171 208,-1171 208,-953 208,-881.14 246.129,-802.96 268.014,-764.004"/>
<polygon fill="green" stroke="green" points="271.255,-765.389 273.195,-754.973 265.183,-761.906 271.255,-765.389"/>
</g>
<!-- C.N.1&#45;&gt;I.3 -->
<g id="edge33" class="edge"><title>C.N.1&#45;&gt;I.3</title>
<path fill="none" stroke="green" d="M895.107,-1378.72C879.084,-1375.42 858.99,-1371.36 841,-1368 794.458,-1359.3 661.52,-1368.2 631,-1332 597.951,-1292.8 628.722,-1229.7 650.22,-1195.29"/>
<polygon fill="green" stroke="green" points="653.225,-1197.09 655.71,-1186.79 647.344,-1193.3 653.225,-1197.09"/>
</g>
<!-- I.13 -->
<g id="node26" class="node"><title>I.13</title>
<g id="a_node26"><a xlink:href="https://mathcs.clarku.edu/~djoyce/elements/bookI/propI13.html" xlink:title="I.13">
<ellipse fill="lightyellow" stroke="black" cx="559" cy="-810" rx="27" ry="18"/>
<text text-anchor="middle" x="559" y="-806.3" font-family="Times New Roman,serif" font-size="14.00">I.13</text>
</a>
</g>
</g>
<!-- C.N.1&#45;&gt;I.13 -->
<g id="edge43" class="edge"><title>C.N.1&#45;&gt;I.13</title>
<path fill="none" stroke="green" d="M895.612,-1378.1C879.558,-1374.57 859.279,-1370.5 841,-1368 786.365,-1360.52 388.531,-1367.1 346,-1332 314.403,-1305.92 322,-1283.97 322,-1243 322,-1243 322,-1243 322,-1169 322,-1021.12 345.968,-963.907 455,-864 475.472,-845.242 503.821,-831.381 525.752,-822.548"/>
<polygon fill="green" stroke="green" points="527.262,-825.717 535.325,-818.844 524.736,-819.189 527.262,-825.717"/>
</g>
<!-- C.N.1&#45;&gt;I.29 -->
<g id="edge52" class="edge"><title>C.N.1&#45;&gt;I.29</title>
<path fill="none" stroke="green" d="M895.6,-1378.18C879.544,-1374.67 859.265,-1370.6 841,-1368 746.07,-1354.47 491.885,-1383.5 411,-1332 372.544,-1307.51 360,-1288.59 360,-1243 360,-1243 360,-1243 360,-1169 360,-1031.18 348.45,-984.132 416,-864 465.129,-776.629 569.02,-711.002 620.212,-682.553"/>
<polygon fill="green" stroke="green" points="622.037,-685.544 629.133,-677.676 618.679,-679.402 622.037,-685.544"/>
</g>
<!-- C.N.1&#45;&gt;I.1 -->
<g id="edge65" class="edge"><title>C.N.1&#45;&gt;I.1</title>
<path fill="none" stroke="green" d="M896.404,-1377.24C848.657,-1364.29 752.885,-1338.3 701.483,-1324.36"/>
<polygon fill="green" stroke="green" points="702.089,-1320.89 691.521,-1321.65 700.256,-1327.65 702.089,-1320.89"/>
</g>
<!-- C.N.1&#45;&gt;I.2 -->
<g id="edge73" class="edge"><title>C.N.1&#45;&gt;I.2</title>
<path fill="none" stroke="green" d="M933.341,-1368.15C938.155,-1357.89 944.024,-1344.42 948,-1332 954.534,-1311.59 959.478,-1287.83 962.682,-1269.99"/>
<polygon fill="green" stroke="green" points="966.156,-1270.44 964.409,-1259.99 959.258,-1269.25 966.156,-1270.44"/>
</g>
<!-- C.N.1&#45;&gt;I.15 -->
<g id="edge78" class="edge"><title>C.N.1&#45;&gt;I.15</title>
<path fill="none" stroke="green" d="M957.567,-1384.57C1132.09,-1382.14 1950.13,-1368.8 1988,-1332 2068.51,-1253.77 2033.73,-1188.52 2005,-1080 1957.61,-901.017 1884.16,-834.695 1704,-792 1547.18,-754.836 1039,-742.452 896.475,-739.664"/>
<polygon fill="green" stroke="green" points="896.158,-736.158 886.093,-739.466 896.024,-743.157 896.158,-736.158"/>
</g>
<!-- C.N.1&#45;&gt;I.22 -->
<g id="edge93" class="edge"><title>C.N.1&#45;&gt;I.22</title>
<path fill="none" stroke="green" d="M957.459,-1384.71C1128.05,-1383.02 1916.82,-1373.02 2017,-1332 2160.9,-1273.08 2278,-1254.5 2278,-1099 2278,-1099 2278,-1099 2278,-521 2278,-383.299 1166.45,-378.474 948.004,-378.855"/>
<polygon fill="green" stroke="green" points="947.991,-375.355 937.999,-378.877 948.007,-382.355 947.991,-375.355"/>
</g>
<!-- C.N.1&#45;&gt;I.26 -->
<g id="edge97" class="edge"><title>C.N.1&#45;&gt;I.26</title>
<path fill="none" stroke="green" d="M957.377,-1384.37C1133.7,-1380.83 1972,-1362.44 2017,-1332 2046.16,-1312.28 2042.49,-1294.39 2050,-1260 2089.68,-1078.19 2057.75,-982.178 1914,-864 1669.57,-663.049 1268.78,-609.947 1145.94,-598.05"/>
<polygon fill="green" stroke="green" points="1146.2,-594.56 1135.92,-597.113 1145.55,-601.529 1146.2,-594.56"/>
</g>
<!-- I.35 -->
<g id="node39" class="node"><title>I.35</title>
<g id="a_node39"><a xlink:href="https://mathcs.clarku.edu/~djoyce/elements/bookI/propI35.html" xlink:title="I.35">
<ellipse fill="lightyellow" stroke="black" cx="1088" cy="-450" rx="27" ry="18"/>
<text text-anchor="middle" x="1088" y="-446.3" font-family="Times New Roman,serif" font-size="14.00">I.35</text>
</a>
</g>
</g>
<!-- C.N.1&#45;&gt;I.35 -->
<g id="edge100" class="edge"><title>C.N.1&#45;&gt;I.35</title>
<path fill="none" stroke="green" d="M957.69,-1384.68C1131.3,-1382.82 1941.33,-1372.06 2045,-1332 2149.83,-1291.49 2240,-1283.39 2240,-1171 2240,-1171 2240,-1171 2240,-1025 2240,-928.401 2202,-907.599 2202,-811 2202,-811 2202,-811 2202,-593 2202,-481.897 1318.82,-456.067 1125.22,-451.74"/>
<polygon fill="green" stroke="green" points="1125.06,-448.235 1114.99,-451.517 1124.91,-455.234 1125.06,-448.235"/>
</g>
<!-- C.N.2 -->
<g id="node8" class="node"><title>C.N.2</title>
<g id="a_node8"><a xlink:href="https://mathcs.clarku.edu/~djoyce/elements/bookI/cn.html" xlink:title="C.N.2">
<ellipse fill="darksalmon" stroke="black" cx="758" cy="-882" rx="32.4942" ry="18"/>
<text text-anchor="middle" x="758" y="-878.3" font-family="Times New Roman,serif" font-size="14.00">C.N.2</text>
</a>
</g>
</g>
<!-- C.N.2&#45;&gt;I.47 -->
<g id="edge7" class="edge"><title>C.N.2&#45;&gt;I.47</title>
<path fill="none" stroke="green" d="M726.721,-876.692C670.824,-868.551 556.496,-849.756 523,-828 419.272,-760.626 126,-256.763 126,-235 126,-235 126,-235 126,-161 126,-108.134 173.763,-62.2575 205.166,-37.8081"/>
<polygon fill="green" stroke="green" points="207.662,-40.3095 213.536,-31.4923 203.446,-34.7218 207.662,-40.3095"/>
</g>
<!-- C.N.2&#45;&gt;I.13 -->
<g id="edge42" class="edge"><title>C.N.2&#45;&gt;I.13</title>
<path fill="none" stroke="green" d="M731.162,-871.559C695.128,-858.884 631.14,-836.376 592.142,-822.658"/>
<polygon fill="green" stroke="green" points="592.919,-819.221 582.324,-819.205 590.596,-825.825 592.919,-819.221"/>
</g>
<!-- C.N.2&#45;&gt;I.29 -->
<g id="edge53" class="edge"><title>C.N.2&#45;&gt;I.29</title>
<path fill="none" stroke="green" d="M743.118,-865.751C733.851,-855.656 722.179,-841.781 714,-828 713.543,-827.23 678.295,-738.373 660.311,-693.013"/>
<polygon fill="green" stroke="green" points="663.489,-691.531 656.55,-683.525 656.981,-694.111 663.489,-691.531"/>
</g>
<!-- I.34 -->
<g id="node30" class="node"><title>I.34</title>
<g id="a_node30"><a xlink:href="https://mathcs.clarku.edu/~djoyce/elements/bookI/propI34.html" xlink:title="I.34">
<ellipse fill="lightyellow" stroke="black" cx="728" cy="-522" rx="27" ry="18"/>
<text text-anchor="middle" x="728" y="-518.3" font-family="Times New Roman,serif" font-size="14.00">I.34</text>
</a>
</g>
</g>
<!-- C.N.2&#45;&gt;I.34 -->
<g id="edge56" class="edge"><title>C.N.2&#45;&gt;I.34</title>
<path fill="none" stroke="green" d="M756.553,-863.733C751.731,-806.194 736.184,-620.658 730.292,-550.351"/>
<polygon fill="green" stroke="green" points="733.755,-549.767 729.432,-540.094 726.78,-550.351 733.755,-549.767"/>
</g>
<!-- C.N.2&#45;&gt;I.35 -->
<g id="edge101" class="edge"><title>C.N.2&#45;&gt;I.35</title>
<path fill="none" stroke="green" d="M762.752,-864.143C771.728,-833.842 793.002,-768.788 823,-720 890.329,-610.497 1009.99,-510.924 1062.31,-470.313"/>
<polygon fill="green" stroke="green" points="1064.61,-472.959 1070.4,-464.087 1060.34,-467.411 1064.61,-472.959"/>
</g>
<!-- C.N.3 -->
<g id="node9" class="node"><title>C.N.3</title>
<g id="a_node9"><a xlink:href="https://mathcs.clarku.edu/~djoyce/elements/bookI/cn.html" xlink:title="C.N.3">
<ellipse fill="darksalmon" stroke="black" cx="1844" cy="-1314" rx="32.4942" ry="18"/>
<text text-anchor="middle" x="1844" y="-1310.3" font-family="Times New Roman,serif" font-size="14.00">C.N.3</text>
</a>
</g>
</g>
<!-- C.N.3&#45;&gt;I.14 -->
<g id="edge15" class="edge"><title>C.N.3&#45;&gt;I.14</title>
<path fill="none" stroke="green" d="M1811.36,-1312.62C1657.77,-1310.65 1011.02,-1299.99 931,-1260 719.028,-1154.08 789.538,-962.46 574,-864 471.492,-817.173 413.027,-895.792 323,-828 303.294,-813.161 293.064,-786.407 287.906,-766.094"/>
<polygon fill="green" stroke="green" points="291.277,-765.132 285.648,-756.157 284.451,-766.684 291.277,-765.132"/>
</g>
<!-- C.N.3&#45;&gt;I.2 -->
<g id="edge72" class="edge"><title>C.N.3&#45;&gt;I.2</title>
<path fill="none" stroke="green" d="M1812.01,-1310.45C1676.32,-1299.62 1148.68,-1257.5 1003.92,-1245.95"/>
<polygon fill="green" stroke="green" points="1004.03,-1242.44 993.781,-1245.14 1003.47,-1249.42 1004.03,-1242.44"/>
</g>
<!-- C.N.3&#45;&gt;I.15 -->
<g id="edge79" class="edge"><title>C.N.3&#45;&gt;I.15</title>
<path fill="none" stroke="green" d="M1849.47,-1296.13C1863.2,-1252.26 1898,-1130.84 1898,-1027 1898,-1027 1898,-1027 1898,-953 1898,-743.998 1081.29,-737.381 896.055,-738.569"/>
<polygon fill="green" stroke="green" points="895.964,-735.069 885.991,-738.645 896.018,-742.069 895.964,-735.069"/>
</g>
<!-- C.N.3&#45;&gt;I.35 -->
<g id="edge104" class="edge"><title>C.N.3&#45;&gt;I.35</title>
<path fill="none" stroke="green" d="M1865.87,-1300.63C1898.16,-1281.13 1958,-1240.06 1988,-1188 2105.72,-983.709 2088,-902.782 2088,-667 2088,-667 2088,-667 2088,-593 2088,-493.765 1306.12,-458.998 1125.1,-452.279"/>
<polygon fill="green" stroke="green" points="1125.13,-448.777 1115.01,-451.91 1124.87,-455.773 1125.13,-448.777"/>
</g>
<!-- C.N.3&#45;&gt;I.5 -->
<g id="edge124" class="edge"><title>C.N.3&#45;&gt;I.5</title>
<path fill="none" stroke="green" d="M1832.86,-1296.94C1812.14,-1267.37 1765.77,-1202.7 1722,-1152 1712.69,-1141.22 1701.74,-1129.88 1692.29,-1120.46"/>
<polygon fill="green" stroke="green" points="1694.67,-1117.9 1685.09,-1113.37 1689.76,-1122.88 1694.67,-1117.9"/>
</g>
<!-- C.N.4 -->
<g id="node10" class="node"><title>C.N.4</title>
<g id="a_node10"><a xlink:href="https://mathcs.clarku.edu/~djoyce/elements/bookI/cn.html" xlink:title="C.N.4">
<ellipse fill="darksalmon" stroke="black" cx="1507" cy="-1242" rx="32.4942" ry="18"/>
<text text-anchor="middle" x="1507" y="-1238.3" font-family="Times New Roman,serif" font-size="14.00">C.N.4</text>
</a>
</g>
</g>
<!-- I.4 -->
<g id="node19" class="node"><title>I.4</title>
<g id="a_node19"><a xlink:href="https://mathcs.clarku.edu/~djoyce/elements/bookI/propI4.html" xlink:title="I.4">
<ellipse fill="lightyellow" stroke="black" cx="1493" cy="-1170" rx="27" ry="18"/>
<text text-anchor="middle" x="1493" y="-1166.3" font-family="Times New Roman,serif" font-size="14.00">I.4</text>
</a>
</g>
</g>
<!-- C.N.4&#45;&gt;I.4 -->
<g id="edge10" class="edge"><title>C.N.4&#45;&gt;I.4</title>
<path fill="none" stroke="green" d="M1503.61,-1224.05C1502.07,-1216.35 1500.21,-1207.03 1498.47,-1198.36"/>
<polygon fill="green" stroke="green" points="1501.85,-1197.39 1496.46,-1188.28 1494.98,-1198.77 1501.85,-1197.39"/>
</g>
<!-- I.8 -->
<g id="node34" class="node"><title>I.8</title>
<g id="a_node34"><a xlink:href="https://mathcs.clarku.edu/~djoyce/elements/bookI/propI8.html" xlink:title="I.8">
<ellipse fill="lightyellow" stroke="black" cx="1539" cy="-954" rx="27" ry="18"/>
<text text-anchor="middle" x="1539" y="-950.3" font-family="Times New Roman,serif" font-size="14.00">I.8</text>
</a>
</g>
</g>
<!-- C.N.4&#45;&gt;I.8 -->
<g id="edge75" class="edge"><title>C.N.4&#45;&gt;I.8</title>
<path fill="none" stroke="green" d="M1515.7,-1224.31C1520.57,-1214.11 1526.2,-1200.64 1529,-1188 1545.16,-1115.12 1543.23,-1026.36 1540.88,-982.396"/>
<polygon fill="green" stroke="green" points="1544.37,-982 1540.29,-972.221 1537.38,-982.408 1544.37,-982"/>
</g>
<!-- C.N.5 -->
<g id="node11" class="node"><title>C.N.5</title>
<g id="a_node11"><a xlink:href="https://mathcs.clarku.edu/~djoyce/elements/bookI/cn.html" xlink:title="C.N.5">
<ellipse fill="darksalmon" stroke="black" cx="1230" cy="-1098" rx="32.4942" ry="18"/>
<text text-anchor="middle" x="1230" y="-1094.3" font-family="Times New Roman,serif" font-size="14.00">C.N.5</text>
</a>
</g>
</g>
<!-- C.N.5&#45;&gt;I.16 -->
<g id="edge86" class="edge"><title>C.N.5&#45;&gt;I.16</title>
<path fill="none" stroke="green" d="M1218.81,-1080.98C1212.17,-1070.8 1204.09,-1057.12 1199,-1044 1184.38,-1006.29 1180,-995.447 1180,-955 1180,-955 1180,-955 1180,-881 1180,-812.533 1199.56,-733.712 1210.98,-693.541"/>
<polygon fill="green" stroke="green" points="1214.4,-694.312 1213.82,-683.733 1207.67,-692.362 1214.4,-694.312"/>
</g>
<!-- C.N.5&#45;&gt;I.7 -->
<g id="edge107" class="edge"><title>C.N.5&#45;&gt;I.7</title>
<path fill="none" stroke="green" d="M1231.24,-1079.7C1231.79,-1071.98 1232.45,-1062.71 1233.06,-1054.11"/>
<polygon fill="green" stroke="green" points="1236.56,-1054.33 1233.78,-1044.1 1229.57,-1053.83 1236.56,-1054.33"/>
</g>
<!-- C.N.5&#45;&gt;I.20 -->
<g id="edge117" class="edge"><title>C.N.5&#45;&gt;I.20</title>
<path fill="none" stroke="green" d="M1243.65,-1081.5C1252.2,-1071.31 1263.06,-1057.41 1271,-1044 1297.66,-998.952 1292.03,-981.451 1318,-936 1426.41,-746.285 1593.85,-541.43 1650.5,-473.959"/>
<polygon fill="green" stroke="green" points="1653.38,-475.971 1657.15,-466.068 1648.03,-471.461 1653.38,-475.971"/>
</g>
<!-- I.Def.22 -->
<g id="node12" class="node"><title>I.Def.22</title>
<g id="a_node12"><a xlink:href="https://mathcs.clarku.edu/~djoyce/elements/bookI/defI22.html" xlink:title="I.Def.22">
<ellipse fill="greenyellow" stroke="black" cx="232" cy="-234" rx="40.0939" ry="18"/>
<text text-anchor="middle" x="232" y="-230.3" font-family="Times New Roman,serif" font-size="14.00">I.Def.22</text>
</a>
</g>
</g>
<!-- I.Def.22&#45;&gt;I.47 -->
<g id="edge4" class="edge"><title>I.Def.22&#45;&gt;I.47</title>
<path fill="none" stroke="green" d="M232,-215.849C232,-178.832 232,-91.1809 232,-46.3863"/>
<polygon fill="green" stroke="green" points="235.5,-46.2324 232,-36.2325 228.5,-46.2325 235.5,-46.2324"/>
</g>
<!-- I.Def.22&#45;&gt;I.46 -->
<g id="edge29" class="edge"><title>I.Def.22&#45;&gt;I.46</title>
<path fill="none" stroke="green" d="M256.101,-219.503C276.586,-208.032 306.057,-191.528 327.863,-179.317"/>
<polygon fill="green" stroke="green" points="329.676,-182.313 336.691,-174.373 326.255,-176.206 329.676,-182.313"/>
</g>
<!-- I.Def.15 -->
<g id="node13" class="node"><title>I.Def.15</title>
<g id="a_node13"><a xlink:href="https://mathcs.clarku.edu/~djoyce/elements/bookI/defI15.html" xlink:title="I.Def.15">
<ellipse fill="greenyellow" stroke="black" cx="667" cy="-1386" rx="40.0939" ry="18"/>
<text text-anchor="middle" x="667" y="-1382.3" font-family="Times New Roman,serif" font-size="14.00">I.Def.15</text>
</a>
</g>
</g>
<!-- I.Def.15&#45;&gt;I.3 -->
<g id="edge32" class="edge"><title>I.Def.15&#45;&gt;I.3</title>
<path fill="none" stroke="green" d="M627.405,-1382.63C531.588,-1376.5 293.358,-1358.68 270,-1332 165.251,-1212.34 512.452,-1180.25 629.695,-1172.93"/>
<polygon fill="green" stroke="green" points="630.21,-1176.4 639.983,-1172.31 629.792,-1169.41 630.21,-1176.4"/>
</g>
<!-- I.Def.15&#45;&gt;I.1 -->
<g id="edge64" class="edge"><title>I.Def.15&#45;&gt;I.1</title>
<path fill="none" stroke="green" d="M667,-1367.7C667,-1359.98 667,-1350.71 667,-1342.11"/>
<polygon fill="green" stroke="green" points="670.5,-1342.1 667,-1332.1 663.5,-1342.1 670.5,-1342.1"/>
</g>
<!-- I.Def.15&#45;&gt;I.2 -->
<g id="edge71" class="edge"><title>I.Def.15&#45;&gt;I.2</title>
<path fill="none" stroke="green" d="M689.765,-1370.94C720.306,-1352.42 776.549,-1319.43 827,-1296 862.634,-1279.45 905.004,-1263.97 933.727,-1254.06"/>
<polygon fill="green" stroke="green" points="934.953,-1257.34 943.285,-1250.79 932.69,-1250.71 934.953,-1257.34"/>
</g>
<!-- I.Def.20 -->
<g id="node14" class="node"><title>I.Def.20</title>
<g id="a_node14"><a xlink:href="https://mathcs.clarku.edu/~djoyce/elements/bookI/defI20.html" xlink:title="I.Def.20">
<ellipse fill="greenyellow" stroke="black" cx="2088" cy="-1386" rx="40.0939" ry="18"/>
<text text-anchor="middle" x="2088" y="-1382.3" font-family="Times New Roman,serif" font-size="14.00">I.Def.20</text>
</a>
</g>
</g>
<!-- I.Def.20&#45;&gt;I.11 -->
<g id="edge37" class="edge"><title>I.Def.20&#45;&gt;I.11</title>
<path fill="none" stroke="green" d="M2047.66,-1385.31C1842.42,-1386.64 912.838,-1389.31 631,-1332 522.37,-1309.91 398,-1353.85 398,-1243 398,-1243 398,-1243 398,-1025 398,-974.843 439.107,-928.613 466.662,-903.258"/>
<polygon fill="green" stroke="green" points="469.243,-905.646 474.373,-896.376 464.582,-900.424 469.243,-905.646"/>
</g>
<!-- I.Def.20&#45;&gt;I.1 -->
<g id="edge66" class="edge"><title>I.Def.20&#45;&gt;I.1</title>
<path fill="none" stroke="green" d="M2047.75,-1383.9C1893.8,-1379.56 1327.58,-1362.34 862,-1332 806.708,-1328.4 742.745,-1322.49 703.586,-1318.67"/>
<polygon fill="green" stroke="green" points="703.76,-1315.17 693.466,-1317.68 703.076,-1322.14 703.76,-1315.17"/>
</g>
<!-- I.10 -->
<g id="node41" class="node"><title>I.10</title>
<g id="a_node41"><a xlink:href="https://mathcs.clarku.edu/~djoyce/elements/bookI/propI10.html" xlink:title="I.10">
<ellipse fill="lightyellow" stroke="black" cx="1577" cy="-810" rx="27" ry="18"/>
<text text-anchor="middle" x="1577" y="-806.3" font-family="Times New Roman,serif" font-size="14.00">I.10</text>
</a>
</g>
</g>
<!-- I.Def.20&#45;&gt;I.10 -->
<g id="edge111" class="edge"><title>I.Def.20&#45;&gt;I.10</title>
<path fill="none" stroke="green" d="M2084.49,-1367.99C2068.13,-1293.54 1992.03,-994.205 1802,-864 1744.6,-824.67 1661.74,-814.303 1614.24,-811.708"/>
<polygon fill="green" stroke="green" points="1614.24,-808.205 1604.09,-811.244 1613.92,-815.198 1614.24,-808.205"/>
</g>
<!-- I.Def.20&#45;&gt;I.5 -->
<g id="edge119" class="edge"><title>I.Def.20&#45;&gt;I.5</title>
<path fill="none" stroke="green" d="M2067.13,-1370.41C2014.27,-1333.52 1870.76,-1233.61 1750,-1152 1732.58,-1140.22 1712.89,-1127.18 1697.4,-1116.97"/>
<polygon fill="green" stroke="green" points="1699.09,-1113.9 1688.82,-1111.32 1695.25,-1119.75 1699.09,-1113.9"/>
</g>
<!-- I.Def.20&#45;&gt;I.9 -->
<g id="edge128" class="edge"><title>I.Def.20&#45;&gt;I.9</title>
<path fill="none" stroke="green" d="M2100.98,-1368.64C2122.73,-1339.12 2162.05,-1275.27 2140,-1224 2068.75,-1058.35 1871.39,-939.145 1795.9,-898.374"/>
<polygon fill="green" stroke="green" points="1797.37,-895.193 1786.9,-893.576 1794.07,-901.369 1797.37,-895.193"/>
</g>
<!-- I.Def.10 -->
<g id="node15" class="node"><title>I.Def.10</title>
<g id="a_node15"><a xlink:href="https://mathcs.clarku.edu/~djoyce/elements/bookI/defI10.html" xlink:title="I.Def.10">
<ellipse fill="greenyellow" stroke="black" cx="580" cy="-954" rx="40.0939" ry="18"/>
<text text-anchor="middle" x="580" y="-950.3" font-family="Times New Roman,serif" font-size="14.00">I.Def.10</text>
</a>
</g>
</g>
<!-- I.Def.10&#45;&gt;I.11 -->
<g id="edge39" class="edge"><title>I.Def.10&#45;&gt;I.11</title>
<path fill="none" stroke="green" d="M560.688,-937.811C547.525,-927.458 529.978,-913.657 515.785,-902.494"/>
<polygon fill="green" stroke="green" points="517.898,-899.703 507.874,-896.272 513.571,-905.205 517.898,-899.703"/>
</g>
<!-- I.Def.10&#45;&gt;I.13 -->
<g id="edge40" class="edge"><title>I.Def.10&#45;&gt;I.13</title>
<path fill="none" stroke="green" d="M577.467,-935.871C573.888,-911.67 567.313,-867.211 563.051,-838.393"/>
<polygon fill="green" stroke="green" points="566.467,-837.57 561.542,-828.189 559.543,-838.594 566.467,-837.57"/>
</g>
<!-- I.Def.23 -->
<g id="node16" class="node"><title>I.Def.23</title>
<g id="a_node16"><a xlink:href="https://mathcs.clarku.edu/~djoyce/elements/bookI/defI23.html" xlink:title="I.Def.23">
<ellipse fill="greenyellow" stroke="black" cx="1020" cy="-666" rx="40.0939" ry="18"/>
<text text-anchor="middle" x="1020" y="-662.3" font-family="Times New Roman,serif" font-size="14.00">I.Def.23</text>
</a>
</g>
</g>
<!-- I.27 -->
<g id="node28" class="node"><title>I.27</title>
<g id="a_node28"><a xlink:href="https://mathcs.clarku.edu/~djoyce/elements/bookI/propI27.html" xlink:title="I.27">
<ellipse fill="lightyellow" stroke="black" cx="1028" cy="-594" rx="27" ry="18"/>
<text text-anchor="middle" x="1028" y="-590.3" font-family="Times New Roman,serif" font-size="14.00">I.27</text>
</a>
</g>
</g>
<!-- I.Def.23&#45;&gt;I.27 -->
<g id="edge48" class="edge"><title>I.Def.23&#45;&gt;I.27</title>
<path fill="none" stroke="green" d="M1021.98,-647.697C1022.86,-639.983 1023.92,-630.712 1024.9,-622.112"/>
<polygon fill="green" stroke="green" points="1028.39,-622.437 1026.05,-612.104 1021.43,-621.642 1028.39,-622.437"/>
</g>
<!-- I.Def.16 -->
<g id="node17" class="node"><title>I.Def.16</title>
<g id="a_node17"><a xlink:href="https://mathcs.clarku.edu/~djoyce/elements/bookI/defI15.html" xlink:title="I.Def.16">
<ellipse fill="greenyellow" stroke="black" cx="824" cy="-450" rx="40.0939" ry="18"/>
<text text-anchor="middle" x="824" y="-446.3" font-family="Times New Roman,serif" font-size="14.00">I.Def.16</text>
</a>
</g>
</g>
<!-- I.Def.16&#45;&gt;I.22 -->
<g id="edge92" class="edge"><title>I.Def.16&#45;&gt;I.22</title>
<path fill="none" stroke="green" d="M842.878,-433.811C855.625,-423.555 872.577,-409.915 886.382,-398.808"/>
<polygon fill="green" stroke="green" points="888.908,-401.268 894.505,-392.272 884.52,-395.814 888.908,-401.268"/>
</g>
<!-- I.4&#45;&gt;I.47 -->
<g id="edge8" class="edge"><title>I.4&#45;&gt;I.47</title>
<path fill="none" stroke="green" d="M1475.4,-1156.26C1463.54,-1146.64 1448.72,-1132.31 1441,-1116 1382.7,-992.746 1408,-947.347 1408,-811 1408,-811 1408,-811 1408,-161 1408,-43.3779 468.776,-22.5786 269.055,-19.4854"/>
<polygon fill="green" stroke="green" points="269.106,-15.9859 259.054,-19.3359 269.001,-22.9851 269.106,-15.9859"/>
</g>
<!-- I.4&#45;&gt;I.34 -->
<g id="edge57" class="edge"><title>I.4&#45;&gt;I.34</title>
<path fill="none" stroke="green" d="M1476.98,-1155.35C1465.88,-1145.29 1451.29,-1130.83 1441,-1116 1375.81,-1022.08 1332,-997.327 1332,-883 1332,-883 1332,-883 1332,-737 1332,-627.329 1247.91,-613.914 1145,-576 1075.41,-550.362 853.491,-532.028 764.97,-525.559"/>
<polygon fill="green" stroke="green" points="765.082,-522.058 754.856,-524.829 764.578,-529.04 765.082,-522.058"/>
</g>
<!-- I.4&#45;&gt;I.16 -->
<g id="edge85" class="edge"><title>I.4&#45;&gt;I.16</title>
<path fill="none" stroke="green" d="M1484.19,-1152.87C1444.38,-1079.92 1281.04,-780.658 1232.6,-691.915"/>
<polygon fill="green" stroke="green" points="1235.64,-690.175 1227.77,-683.074 1229.49,-693.528 1235.64,-690.175"/>
</g>
<!-- I.4&#45;&gt;I.26 -->
<g id="edge96" class="edge"><title>I.4&#45;&gt;I.26</title>
<path fill="none" stroke="green" d="M1490.21,-1151.68C1477.58,-1079.01 1419.16,-795.603 1255,-648 1224.06,-620.18 1177.38,-606.642 1145.17,-600.276"/>
<polygon fill="green" stroke="green" points="1145.73,-596.82 1135.26,-598.452 1144.46,-603.704 1145.73,-596.82"/>
</g>
<!-- I.4&#45;&gt;I.35 -->
<g id="edge103" class="edge"><title>I.4&#45;&gt;I.35</title>
<path fill="none" stroke="green" d="M1494.65,-1151.79C1501.19,-1072.76 1517.25,-741.452 1346,-576 1280.26,-512.485 1176.05,-475.766 1122.41,-460.087"/>
<polygon fill="green" stroke="green" points="1123.27,-456.693 1112.69,-457.316 1121.35,-463.424 1123.27,-456.693"/>
</g>
<!-- I.4&#45;&gt;I.10 -->
<g id="edge112" class="edge"><title>I.4&#45;&gt;I.10</title>
<path fill="none" stroke="green" d="M1506.11,-1154.15C1514.5,-1143.99 1525.07,-1129.91 1532,-1116 1561.79,-1056.22 1564.93,-1038.03 1575,-972 1582.09,-925.527 1580.72,-870.633 1578.96,-838.438"/>
<polygon fill="green" stroke="green" points="1582.43,-837.818 1578.33,-828.047 1575.44,-838.241 1582.43,-837.818"/>
</g>
<!-- I.4&#45;&gt;I.5 -->
<g id="edge123" class="edge"><title>I.4&#45;&gt;I.5</title>
<path fill="none" stroke="green" d="M1515.78,-1159.99C1546.84,-1147.71 1602.66,-1125.63 1637.94,-1111.68"/>
<polygon fill="green" stroke="green" points="1639.3,-1114.91 1647.31,-1107.97 1636.72,-1108.4 1639.3,-1114.91"/>
</g>
<!-- I.14&#45;&gt;I.47 -->
<g id="edge5" class="edge"><title>I.14&#45;&gt;I.47</title>
<path fill="none" stroke="green" d="M274.621,-720.338C237.297,-645.523 88,-339.717 88,-235 88,-235 88,-235 88,-161 88,-120.031 85.3219,-103.092 112,-72 133.567,-46.8649 169.354,-33.1837 196.246,-26.0542"/>
<polygon fill="green" stroke="green" points="197.197,-29.4245 206.069,-23.6323 195.522,-22.628 197.197,-29.4245"/>
</g>
<!-- I.31&#45;&gt;I.47 -->
<g id="edge2" class="edge"><title>I.31&#45;&gt;I.47</title>
<path fill="none" stroke="green" d="M484.153,-231.916C444.472,-229.017 369.626,-218.439 321,-180 276.76,-145.029 251.208,-81.7071 239.61,-45.7799"/>
<polygon fill="green" stroke="green" points="242.882,-44.5115 236.579,-35.9949 236.195,-46.5828 242.882,-44.5115"/>
</g>
<!-- I.31&#45;&gt;I.46 -->
<g id="edge25" class="edge"><title>I.31&#45;&gt;I.46</title>
<path fill="none" stroke="green" d="M489.262,-223.119C462.778,-211.081 417.859,-190.663 387.816,-177.007"/>
<polygon fill="green" stroke="green" points="389.179,-173.782 378.627,-172.831 386.283,-180.155 389.179,-173.782"/>
</g>
<!-- I.31&#45;&gt;I.37 -->
<g id="edge59" class="edge"><title>I.31&#45;&gt;I.37</title>
<path fill="none" stroke="green" d="M533.649,-223.992C564.539,-211.706 620.041,-189.632 655.122,-175.679"/>
<polygon fill="green" stroke="green" points="656.44,-178.921 664.438,-171.973 653.853,-172.417 656.44,-178.921"/>
</g>
<!-- I.41&#45;&gt;I.47 -->
<g id="edge9" class="edge"><title>I.41&#45;&gt;I.47</title>
<path fill="none" stroke="green" d="M456.671,-82.1607C412.137,-69.6408 317.401,-43.0083 266.33,-28.6511"/>
<polygon fill="green" stroke="green" points="267.001,-25.2041 256.427,-25.8671 265.107,-31.9429 267.001,-25.2041"/>
</g>
<!-- I.46&#45;&gt;I.47 -->
<g id="edge1" class="edge"><title>I.46&#45;&gt;I.47</title>
<path fill="none" stroke="green" d="M348.786,-144.756C338.825,-125.991 320.767,-94.7808 300,-72 287.923,-58.7521 272.263,-46.2998 259.016,-36.7982"/>
<polygon fill="green" stroke="green" points="260.923,-33.8608 250.721,-31.0017 256.913,-39.5987 260.923,-33.8608"/>
</g>
<!-- I.3&#45;&gt;I.46 -->
<g id="edge24" class="edge"><title>I.3&#45;&gt;I.46</title>
<path fill="none" stroke="green" d="M643.238,-1161.04C537.391,-1123.96 114,-957.449 114,-667 114,-667 114,-667 114,-593 114,-501.351 283.428,-262.946 339.337,-186.77"/>
<polygon fill="green" stroke="green" points="342.167,-188.83 345.28,-178.703 336.531,-184.679 342.167,-188.83"/>
</g>
<!-- I.3&#45;&gt;I.11 -->
<g id="edge34" class="edge"><title>I.3&#45;&gt;I.11</title>
<path fill="none" stroke="green" d="M641.652,-1163.1C616.828,-1156.03 579.666,-1141.77 558,-1116 506.862,-1055.18 494.711,-957.343 491.855,-910.167"/>
<polygon fill="green" stroke="green" points="495.347,-909.916 491.343,-900.107 488.356,-910.272 495.347,-909.916"/>
</g>
<!-- I.3&#45;&gt;I.16 -->
<g id="edge83" class="edge"><title>I.3&#45;&gt;I.16</title>
<path fill="none" stroke="green" d="M663.982,-1151.85C661.551,-1133.08 660.224,-1102.66 672,-1080 788.454,-855.937 1087.72,-719.551 1186.69,-679.45"/>
<polygon fill="green" stroke="green" points="1188.17,-682.624 1196.16,-675.659 1185.57,-676.125 1188.17,-682.624"/>
</g>
<!-- I.3&#45;&gt;I.22 -->
<g id="edge89" class="edge"><title>I.3&#45;&gt;I.22</title>
<path fill="none" stroke="green" d="M650.489,-1155.47C607.948,-1119.39 495.123,-1015.73 455,-900 407.227,-762.203 419.332,-692.552 507,-576 508.27,-574.312 773.082,-432.885 775,-432 809.427,-416.114 850.07,-400.692 877.902,-390.619"/>
<polygon fill="green" stroke="green" points="879.311,-393.832 887.54,-387.159 876.946,-387.244 879.311,-393.832"/>
</g>
<!-- I.3&#45;&gt;I.26 -->
<g id="edge94" class="edge"><title>I.3&#45;&gt;I.26</title>
<path fill="none" stroke="green" d="M678.318,-1153.33C699.273,-1124.4 745.661,-1060.73 786,-1008 885.199,-878.339 893.48,-830.125 1014,-720 1035.57,-700.293 1050.03,-706.216 1069,-684 1084.5,-665.848 1095.06,-640.716 1101.41,-621.786"/>
<polygon fill="green" stroke="green" points="1104.83,-622.581 1104.52,-611.991 1098.16,-620.466 1104.83,-622.581"/>
</g>
<!-- I.3&#45;&gt;I.20 -->
<g id="edge114" class="edge"><title>I.3&#45;&gt;I.20</title>
<path fill="none" stroke="green" d="M686.589,-1157.54C750.979,-1118.22 952,-981.802 952,-811 952,-811 952,-811 952,-737 952,-663.269 937.287,-625.424 992,-576 1088,-489.278 1505.32,-459.885 1632.85,-452.838"/>
<polygon fill="green" stroke="green" points="1633.1,-456.329 1642.9,-452.296 1632.73,-449.339 1633.1,-456.329"/>
</g>
<!-- I.3&#45;&gt;I.5 -->
<g id="edge121" class="edge"><title>I.3&#45;&gt;I.5</title>
<path fill="none" stroke="green" d="M693.828,-1167.13C832.849,-1157.43 1471.08,-1112.88 1632.71,-1101.6"/>
<polygon fill="green" stroke="green" points="1633.36,-1105.07 1643.09,-1100.88 1632.87,-1098.08 1633.36,-1105.07"/>
</g>
<!-- I.3&#45;&gt;I.9 -->
<g id="edge125" class="edge"><title>I.3&#45;&gt;I.9</title>
<path fill="none" stroke="green" d="M694.152,-1168.52C853.892,-1165.56 1665.65,-1148.95 1706,-1116 1767.94,-1065.41 1770.79,-960.174 1768.29,-910.321"/>
<polygon fill="green" stroke="green" points="1771.78,-910.052 1767.68,-900.285 1764.8,-910.48 1771.78,-910.052"/>
</g>
<!-- I.3&#45;&gt;I.18 -->
<g id="edge132" class="edge"><title>I.3&#45;&gt;I.18</title>
<path fill="none" stroke="green" d="M694.015,-1168.42C855.708,-1164.85 1689.93,-1145.07 1735,-1116 1853.46,-1039.6 1822,-951.962 1822,-811 1822,-811 1822,-811 1822,-737 1822,-692.868 1797.4,-646.519 1779.97,-619.22"/>
<polygon fill="green" stroke="green" points="1782.8,-617.153 1774.38,-610.722 1776.95,-621 1782.8,-617.153"/>
</g>
<!-- I.11&#45;&gt;I.46 -->
<g id="edge23" class="edge"><title>I.11&#45;&gt;I.46</title>
<path fill="none" stroke="green" d="M464.58,-877.727C412.956,-870.839 301.264,-853.364 273,-828 247.679,-805.277 252.866,-789.513 247,-756 227.253,-643.176 321.596,-290.096 349.448,-189.808"/>
<polygon fill="green" stroke="green" points="352.902,-190.449 352.218,-179.876 346.16,-188.567 352.902,-190.449"/>
</g>
<!-- I.11&#45;&gt;I.13 -->
<g id="edge41" class="edge"><title>I.11&#45;&gt;I.13</title>
<path fill="none" stroke="green" d="M505.09,-866.496C514.572,-856.735 527.244,-843.69 537.92,-832.7"/>
<polygon fill="green" stroke="green" points="540.471,-835.097 544.928,-825.485 535.45,-830.22 540.471,-835.097"/>
</g>
<!-- I.13&#45;&gt;I.14 -->
<g id="edge12" class="edge"><title>I.13&#45;&gt;I.14</title>
<path fill="none" stroke="green" d="M534.02,-802.665C484.552,-790.118 374.041,-762.09 317.606,-747.777"/>
<polygon fill="green" stroke="green" points="318.278,-744.337 307.725,-745.271 316.557,-751.122 318.278,-744.337"/>
</g>
<!-- I.13&#45;&gt;I.29 -->
<g id="edge49" class="edge"><title>I.13&#45;&gt;I.29</title>
<path fill="none" stroke="green" d="M560.906,-791.992C563.685,-773.081 570.234,-742.271 585,-720 594.414,-705.802 608.8,-693.511 621.647,-684.35"/>
<polygon fill="green" stroke="green" points="623.915,-687.04 630.215,-678.523 619.978,-681.252 623.915,-687.04"/>
</g>
<!-- I.13&#45;&gt;I.15 -->
<g id="edge76" class="edge"><title>I.13&#45;&gt;I.15</title>
<path fill="none" stroke="green" d="M584.062,-803.152C637.444,-790.696 762.488,-761.519 823.82,-747.209"/>
<polygon fill="green" stroke="green" points="824.855,-750.561 833.799,-744.88 823.265,-743.744 824.855,-750.561"/>
</g>
<!-- I.23&#45;&gt;I.31 -->
<g id="edge17" class="edge"><title>I.23&#45;&gt;I.31</title>
<path fill="none" stroke="green" d="M637.48,-294.821C612.27,-282.898 570.318,-263.056 541.698,-249.519"/>
<polygon fill="green" stroke="green" points="543.083,-246.303 532.546,-245.191 540.09,-252.631 543.083,-246.303"/>
</g>
<!-- I.27&#45;&gt;I.31 -->
<g id="edge19" class="edge"><title>I.27&#45;&gt;I.31</title>
<path fill="none" stroke="green" d="M1027.21,-575.813C1024.28,-532.901 1010.62,-420.19 947,-360 832.746,-251.902 631.352,-236.392 548.357,-234.796"/>
<polygon fill="green" stroke="green" points="548.189,-231.293 538.143,-234.659 548.096,-238.293 548.189,-231.293"/>
</g>
<!-- I.29&#45;&gt;I.46 -->
<g id="edge27" class="edge"><title>I.29&#45;&gt;I.46</title>
<path fill="none" stroke="green" d="M640.972,-648.985C608.02,-590.621 490.879,-383.951 390,-216 384.449,-206.759 378.231,-196.699 372.701,-187.851"/>
<polygon fill="green" stroke="green" points="375.525,-185.765 367.245,-179.155 369.595,-189.486 375.525,-185.765"/>
</g>
<!-- I.29&#45;&gt;I.34 -->
<g id="edge54" class="edge"><title>I.29&#45;&gt;I.34</title>
<path fill="none" stroke="green" d="M658.948,-648.711C672.465,-624.101 698.205,-577.241 714.155,-548.205"/>
<polygon fill="green" stroke="green" points="717.41,-549.549 719.157,-539.099 711.275,-546.179 717.41,-549.549"/>
</g>
<!-- I.29&#45;&gt;I.35 -->
<g id="edge102" class="edge"><title>I.29&#45;&gt;I.35</title>
<path fill="none" stroke="green" d="M668.964,-652.895C714.207,-624.356 832.569,-551.678 938,-504 976.776,-486.465 1023.21,-470.838 1054.04,-461.175"/>
<polygon fill="green" stroke="green" points="1055.35,-464.434 1063.87,-458.132 1053.28,-457.747 1055.35,-464.434"/>
</g>
<!-- I.34&#45;&gt;I.41 -->
<g id="edge22" class="edge"><title>I.34&#45;&gt;I.41</title>
<path fill="none" stroke="green" d="M709.099,-508.799C666.366,-479.56 566,-400.894 566,-307 566,-307 566,-307 566,-233 566,-184.569 529.148,-138.352 503.974,-112.431"/>
<polygon fill="green" stroke="green" points="506.14,-109.647 496.59,-105.058 501.194,-114.6 506.14,-109.647"/>
</g>
<!-- I.34&#45;&gt;I.46 -->
<g id="edge26" class="edge"><title>I.34&#45;&gt;I.46</title>
<path fill="none" stroke="green" d="M714.686,-505.918C673.918,-460.087 546.363,-319.28 428,-216 414.024,-203.805 397.461,-191.339 383.849,-181.563"/>
<polygon fill="green" stroke="green" points="385.568,-178.491 375.388,-175.558 381.517,-184.2 385.568,-178.491"/>
</g>
<!-- I.34&#45;&gt;I.37 -->
<g id="edge61" class="edge"><title>I.34&#45;&gt;I.37</title>
<path fill="none" stroke="green" d="M726.022,-503.733C719.433,-446.194 698.184,-260.658 690.132,-190.351"/>
<polygon fill="green" stroke="green" points="693.573,-189.631 688.958,-180.094 686.618,-190.427 693.573,-189.631"/>
</g>
<!-- I.34&#45;&gt;I.35 -->
<g id="edge99" class="edge"><title>I.34&#45;&gt;I.35</title>
<path fill="none" stroke="green" d="M749.799,-510.88C755.912,-508.341 762.629,-505.824 769,-504 868.794,-475.428 990.843,-460.481 1050.94,-454.382"/>
<polygon fill="green" stroke="green" points="1051.47,-457.847 1061.08,-453.378 1050.78,-450.881 1051.47,-457.847"/>
</g>
<!-- I.37&#45;&gt;I.41 -->
<g id="edge21" class="edge"><title>I.37&#45;&gt;I.41</title>
<path fill="none" stroke="green" d="M663.369,-152.97C626.757,-140.529 556.196,-116.552 514.391,-102.346"/>
<polygon fill="green" stroke="green" points="515.266,-98.9473 504.672,-99.0438 513.014,-105.575 515.266,-98.9473"/>
</g>
<!-- I.1&#45;&gt;I.11 -->
<g id="edge35" class="edge"><title>I.1&#45;&gt;I.11</title>
<path fill="none" stroke="green" d="M641.769,-1307.12C589.454,-1293.27 474,-1253.37 474,-1171 474,-1171 474,-1171 474,-1025 474,-984.71 480.83,-938.444 485.832,-909.965"/>
<polygon fill="green" stroke="green" points="489.304,-910.434 487.641,-899.971 482.416,-909.187 489.304,-910.434"/>
</g>
<!-- I.1&#45;&gt;I.2 -->
<g id="edge68" class="edge"><title>I.1&#45;&gt;I.2</title>
<path fill="none" stroke="green" d="M688.846,-1303.04C694.958,-1300.5 701.664,-1297.94 708,-1296 785.838,-1272.14 880.157,-1255.9 930.747,-1248.17"/>
<polygon fill="green" stroke="green" points="931.487,-1251.6 940.857,-1246.66 930.448,-1244.68 931.487,-1251.6"/>
</g>
<!-- I.1&#45;&gt;I.10 -->
<g id="edge109" class="edge"><title>I.1&#45;&gt;I.10</title>
<path fill="none" stroke="green" d="M693.858,-1311.59C764.215,-1307.47 951.981,-1293.52 1003,-1260 1082.14,-1208 1055.46,-1151.97 1117,-1080 1148.52,-1043.14 1158.99,-1035.4 1199,-1008 1319.22,-925.669 1478.11,-853.45 1545.08,-824.489"/>
<polygon fill="green" stroke="green" points="1546.84,-827.541 1554.65,-820.376 1544.08,-821.11 1546.84,-827.541"/>
</g>
<!-- I.1&#45;&gt;I.9 -->
<g id="edge127" class="edge"><title>I.1&#45;&gt;I.9</title>
<path fill="none" stroke="green" d="M693.471,-1310.4C730.954,-1306.79 801.658,-1300.21 862,-1296 1014.28,-1285.37 1404.83,-1312.96 1548,-1260 1597.19,-1241.8 1701.88,-1156.67 1735,-1116 1757.47,-1088.41 1762.02,-1078.67 1770,-1044 1780.59,-997.977 1775.47,-942.598 1770.75,-910.244"/>
<polygon fill="green" stroke="green" points="1774.19,-909.546 1769.19,-900.201 1767.27,-910.62 1774.19,-909.546"/>
</g>
<!-- I.2&#45;&gt;I.3 -->
<g id="edge30" class="edge"><title>I.2&#45;&gt;I.3</title>
<path fill="none" stroke="green" d="M941.938,-1235.15C888.556,-1222.7 763.512,-1193.52 702.18,-1179.21"/>
<polygon fill="green" stroke="green" points="702.735,-1175.74 692.201,-1176.88 701.145,-1182.56 702.735,-1175.74"/>
</g>
<!-- I.8&#45;&gt;I.11 -->
<g id="edge38" class="edge"><title>I.8&#45;&gt;I.11</title>
<path fill="none" stroke="green" d="M1512.03,-951.366C1408.87,-945.095 1029.42,-921.822 717,-900 650.32,-895.343 572.615,-889.38 527.882,-885.896"/>
<polygon fill="green" stroke="green" points="528.023,-882.396 517.781,-885.108 527.479,-889.375 528.023,-882.396"/>
</g>
<!-- I.8&#45;&gt;I.23 -->
<g id="edge46" class="edge"><title>I.8&#45;&gt;I.23</title>
<path fill="none" stroke="green" d="M1536.71,-935.839C1532.07,-899.569 1522,-812.422 1522,-739 1522,-739 1522,-739 1522,-665 1522,-375.718 1224.68,-441.102 947,-360 858.517,-334.157 750.902,-318.335 695.642,-311.302"/>
<polygon fill="green" stroke="green" points="695.985,-307.818 685.629,-310.052 695.118,-314.764 695.985,-307.818"/>
</g>
<!-- I.8&#45;&gt;I.9 -->
<g id="edge129" class="edge"><title>I.8&#45;&gt;I.9</title>
<path fill="none" stroke="green" d="M1563.29,-945.509C1604,-932.957 1686.05,-907.653 1732.31,-893.389"/>
<polygon fill="green" stroke="green" points="1733.36,-896.729 1741.88,-890.437 1731.29,-890.04 1733.36,-896.729"/>
</g>
<!-- I.15&#45;&gt;I.29 -->
<g id="edge51" class="edge"><title>I.15&#45;&gt;I.29</title>
<path fill="none" stroke="green" d="M835.431,-729.106C798.27,-716.66 725.928,-692.43 683.418,-678.193"/>
<polygon fill="green" stroke="green" points="684.397,-674.83 673.803,-674.972 682.174,-681.467 684.397,-674.83"/>
</g>
<!-- I.15&#45;&gt;I.16 -->
<g id="edge84" class="edge"><title>I.15&#45;&gt;I.16</title>
<path fill="none" stroke="green" d="M884.602,-732.022C947.681,-719.756 1110.71,-688.057 1183.26,-673.949"/>
<polygon fill="green" stroke="green" points="1184.14,-677.344 1193.29,-672 1182.8,-670.473 1184.14,-677.344"/>
</g>
<!-- I.16&#45;&gt;I.27 -->
<g id="edge47" class="edge"><title>I.16&#45;&gt;I.27</title>
<path fill="none" stroke="green" d="M1195.7,-656.648C1166.86,-646.283 1116.24,-628.015 1073,-612 1068.95,-610.499 1064.69,-608.91 1060.49,-607.33"/>
<polygon fill="green" stroke="green" points="1061.46,-603.958 1050.87,-603.706 1058.99,-610.508 1061.46,-603.958"/>
</g>
<!-- I.16&#45;&gt;I.26 -->
<g id="edge98" class="edge"><title>I.16&#45;&gt;I.26</title>
<path fill="none" stroke="green" d="M1199.84,-652.807C1182.33,-641.665 1156.24,-625.062 1136.51,-612.504"/>
<polygon fill="green" stroke="green" points="1138.26,-609.469 1127.94,-607.053 1134.5,-615.375 1138.26,-609.469"/>
</g>
<!-- I.16&#45;&gt;I.18 -->
<g id="edge134" class="edge"><title>I.16&#45;&gt;I.18</title>
<path fill="none" stroke="green" d="M1245.24,-661.624C1334.1,-650.189 1623.86,-612.904 1726.53,-599.693"/>
<polygon fill="green" stroke="green" points="1727.24,-603.131 1736.71,-598.383 1726.34,-596.188 1727.24,-603.131"/>
</g>
<!-- I.22&#45;&gt;I.23 -->
<g id="edge45" class="edge"><title>I.22&#45;&gt;I.23</title>
<path fill="none" stroke="green" d="M885.321,-371.826C845.245,-363.467 765.619,-345.715 700,-324 696.854,-322.959 693.609,-321.788 690.385,-320.56"/>
<polygon fill="green" stroke="green" points="691.49,-317.233 680.905,-316.779 688.897,-323.735 691.49,-317.233"/>
</g>
<!-- I.26&#45;&gt;I.34 -->
<g id="edge55" class="edge"><title>I.26&#45;&gt;I.34</title>
<path fill="none" stroke="green" d="M1086.86,-583.607C1079.67,-580.835 1071.59,-578.009 1064,-576 957.418,-547.781 827.587,-532.533 765.105,-526.345"/>
<polygon fill="green" stroke="green" points="765.246,-522.842 754.955,-525.361 764.571,-529.81 765.246,-522.842"/>
</g>
<!-- I.35&#45;&gt;I.37 -->
<g id="edge60" class="edge"><title>I.35&#45;&gt;I.37</title>
<path fill="none" stroke="green" d="M1075.3,-433.728C1059.33,-415.066 1030.55,-383.123 1002,-360 904.898,-281.363 774.382,-208.934 716.622,-178.345"/>
<polygon fill="green" stroke="green" points="718.149,-175.193 707.67,-173.631 714.887,-181.387 718.149,-175.193"/>
</g>
<!-- I.7&#45;&gt;I.8 -->
<g id="edge74" class="edge"><title>I.7&#45;&gt;I.8</title>
<path fill="none" stroke="green" d="M1260.14,-1019.21C1314.2,-1006.76 1441.63,-977.421 1503.74,-963.12"/>
<polygon fill="green" stroke="green" points="1504.87,-966.449 1513.83,-960.795 1503.3,-959.628 1504.87,-966.449"/>
</g>
<!-- I.10&#45;&gt;I.16 -->
<g id="edge80" class="edge"><title>I.10&#45;&gt;I.16</title>
<path fill="none" stroke="green" d="M1554.33,-800.01C1492.83,-775.612 1322.61,-708.098 1251.2,-679.771"/>
<polygon fill="green" stroke="green" points="1252.38,-676.476 1241.8,-676.043 1249.8,-682.983 1252.38,-676.476"/>
</g>
<!-- I.20&#45;&gt;I.22 -->
<g id="edge87" class="edge"><title>I.20&#45;&gt;I.22</title>
<path fill="none" stroke="green" d="M1643.43,-446.55C1529.24,-436.018 1079.97,-394.583 947.775,-382.392"/>
<polygon fill="green" stroke="green" points="948.025,-378.9 937.746,-381.467 947.382,-385.87 948.025,-378.9"/>
</g>
<!-- I.5&#45;&gt;I.7 -->
<g id="edge106" class="edge"><title>I.5&#45;&gt;I.7</title>
<path fill="none" stroke="green" d="M1644.09,-1092.83C1569.91,-1080.89 1356.55,-1046.56 1271.06,-1032.8"/>
<polygon fill="green" stroke="green" points="1271.48,-1029.32 1261.05,-1031.19 1270.36,-1036.24 1271.48,-1029.32"/>
</g>
<!-- I.5&#45;&gt;I.20 -->
<g id="edge116" class="edge"><title>I.5&#45;&gt;I.20</title>
<path fill="none" stroke="green" d="M1670,-1079.86C1670,-1028.31 1670,-870.142 1670,-739 1670,-739 1670,-739 1670,-593 1670,-552.996 1670,-506.653 1670,-478.08"/>
<polygon fill="green" stroke="green" points="1673.5,-478.049 1670,-468.049 1666.5,-478.049 1673.5,-478.049"/>
</g>
<!-- I.19 -->
<g id="node45" class="node"><title>I.19</title>
<g id="a_node45"><a xlink:href="https://mathcs.clarku.edu/~djoyce/elements/bookI/propI19.html" xlink:title="I.19">
<ellipse fill="lightyellow" stroke="black" cx="1725" cy="-522" rx="27" ry="18"/>
<text text-anchor="middle" x="1725" y="-518.3" font-family="Times New Roman,serif" font-size="14.00">I.19</text>
</a>
</g>
</g>
<!-- I.5&#45;&gt;I.19 -->
<g id="edge130" class="edge"><title>I.5&#45;&gt;I.19</title>
<path fill="none" stroke="green" d="M1672.32,-1079.76C1680.57,-1017.86 1708,-806.971 1708,-739 1708,-739 1708,-739 1708,-665 1708,-624.71 1714.83,-578.444 1719.83,-549.965"/>
<polygon fill="green" stroke="green" points="1723.3,-550.434 1721.64,-539.971 1716.42,-549.187 1723.3,-550.434"/>
</g>
<!-- I.5&#45;&gt;I.18 -->
<g id="edge135" class="edge"><title>I.5&#45;&gt;I.18</title>
<path fill="none" stroke="green" d="M1674.91,-1079.9C1677.78,-1069.56 1681.35,-1056.08 1684,-1044 1718.81,-885.498 1748.54,-692.876 1758.99,-622.459"/>
<polygon fill="green" stroke="green" points="1762.5,-622.634 1760.5,-612.23 1755.58,-621.611 1762.5,-622.634"/>
</g>
<!-- I.9&#45;&gt;I.10 -->
<g id="edge110" class="edge"><title>I.9&#45;&gt;I.10</title>
<path fill="none" stroke="green" d="M1742.54,-872.999C1713.25,-862.916 1661.66,-844.859 1618,-828 1615.08,-826.871 1612.04,-825.671 1609.02,-824.452"/>
<polygon fill="green" stroke="green" points="1610.06,-821.097 1599.48,-820.553 1607.41,-827.576 1610.06,-821.097"/>
</g>
<!-- I.19&#45;&gt;I.20 -->
<g id="edge118" class="edge"><title>I.19&#45;&gt;I.20</title>
<path fill="none" stroke="green" d="M1713.07,-505.811C1705.79,-496.546 1696.34,-484.52 1688.15,-474.094"/>
<polygon fill="green" stroke="green" points="1690.84,-471.86 1681.91,-466.159 1685.34,-476.185 1690.84,-471.86"/>
</g>
<!-- I.18&#45;&gt;I.19 -->
<g id="edge131" class="edge"><title>I.18&#45;&gt;I.19</title>
<path fill="none" stroke="green" d="M1754.19,-576.765C1749.58,-568.283 1743.84,-557.714 1738.68,-548.197"/>
<polygon fill="green" stroke="green" points="1741.61,-546.266 1733.77,-539.147 1735.46,-549.606 1741.61,-546.266"/>
</g>
</g>
</svg>
