<?xml version="1.0" encoding="UTF-8" standalone="no"?>
<!DOCTYPE svg PUBLIC "-//W3C//DTD SVG 1.1//EN"
 "http://www.w3.org/Graphics/SVG/1.1/DTD/svg11.dtd">
<!-- Generated by graphviz version 2.38.0 (20140413.2041)
 -->
<!-- Title: G Pages: 1 -->
<svg width="2408pt" height="1473pt"
 viewBox="0.00 0.00 2407.80 1473.00" xmlns="http://www.w3.org/2000/svg" xmlns:xlink="http://www.w3.org/1999/xlink">
<g id="graph0" class="graph" transform="scale(1 1) rotate(0) translate(4 1469)">
<title>G</title>
<polygon fill="white" stroke="none" points="-4,4 -4,-1469 2403.8,-1469 2403.8,4 -4,4"/>
<text text-anchor="start" x="905.402" y="-1422.6" font-family="Times New Roman,serif" font-size="48.00">Proposition I.47 Dependencies</text>
<!-- Post.1 -->
<g id="node1" class="node"><title>Post.1</title>
<g id="a_node1"><a xlink:href="https://mathcs.clarku.edu/~djoyce/elements/bookI/post1.html" xlink:title="Post.1">
<ellipse fill="lightblue" stroke="black" cx="872" cy="-1386" rx="34.394" ry="18"/>
<text text-anchor="middle" x="872" y="-1382.3" font-family="Times New Roman,serif" font-size="14.00">Post.1</text>
</a>
</g>
</g>
<!-- I.47 -->
<g id="node18" class="node"><title>I.47</title>
<g id="a_node18"><a xlink:href="https://mathcs.clarku.edu/~djoyce/elements/bookI/propI47.html" xlink:title="I.47">
<ellipse fill="gold" stroke="black" cx="181" cy="-18" rx="27" ry="18"/>
<text text-anchor="middle" x="181" y="-14.3" font-family="Times New Roman,serif" font-size="14.00">I.47</text>
</a>
</g>
</g>
<!-- Post.1&#45;&gt;I.47 -->
<g id="edge3" class="edge"><title>Post.1&#45;&gt;I.47</title>
<path fill="none" stroke="green" d="M844.41,-1375.16C835.459,-1372.36 825.409,-1369.64 816,-1368 737.087,-1354.26 159.79,-1380.44 96,-1332 62.7002,-1306.71 0,-1241.73 0,-1027 0,-1027 0,-1027 0,-161 0,-115.188 17.4353,-102.067 52,-72 79.008,-48.5062 117.845,-34.4717 145.841,-26.8065"/>
<polygon fill="green" stroke="green" points="146.824,-30.1673 155.623,-24.2649 145.064,-23.3922 146.824,-30.1673"/>
</g>
<!-- I.31 -->
<g id="node21" class="node"><title>I.31</title>
<g id="a_node21"><a xlink:href="https://mathcs.clarku.edu/~djoyce/elements/bookI/propI31.html" xlink:title="I.31">
<ellipse fill="lightyellow" stroke="black" cx="527" cy="-234" rx="27" ry="18"/>
<text text-anchor="middle" x="527" y="-230.3" font-family="Times New Roman,serif" font-size="14.00">I.31</text>
</a>
</g>
</g>
<!-- Post.1&#45;&gt;I.31 -->
<g id="edge16" class="edge"><title>Post.1&#45;&gt;I.31</title>
<path fill="none" stroke="green" d="M844.404,-1375.2C835.452,-1372.4 825.404,-1369.67 816,-1368 675.74,-1343.13 307.657,-1386.38 176,-1332 121.009,-1309.28 76,-1302.5 76,-1243 76,-1243 76,-1243 76,-809 76,-624.83 130.484,-573.805 248,-432 320.427,-344.604 440.538,-277.759 496.525,-249.598"/>
<polygon fill="green" stroke="green" points="498.177,-252.685 505.576,-245.102 495.063,-246.416 498.177,-252.685"/>
</g>
<!-- I.41 -->
<g id="node22" class="node"><title>I.41</title>
<g id="a_node22"><a xlink:href="https://mathcs.clarku.edu/~djoyce/elements/bookI/propI41.html" xlink:title="I.41">
<ellipse fill="lightyellow" stroke="black" cx="814" cy="-90" rx="27" ry="18"/>
<text text-anchor="middle" x="814" y="-86.3" font-family="Times New Roman,serif" font-size="14.00">I.41</text>
</a>
</g>
</g>
<!-- Post.1&#45;&gt;I.41 -->
<g id="edge20" class="edge"><title>Post.1&#45;&gt;I.41</title>
<path fill="none" stroke="green" d="M843.756,-1375.4C834.947,-1372.68 825.143,-1369.94 816,-1368 689.388,-1341.1 653.092,-1361.24 527,-1332 277.477,-1274.14 38,-1283.14 38,-1027 38,-1027 38,-1027 38,-809 38,-648.995 76,-611.005 76,-451 76,-451 76,-451 76,-377 76,-241.963 141.567,-182.497 271,-144 366.235,-115.675 670.056,-98.1805 776.626,-92.7882"/>
<polygon fill="green" stroke="green" points="777.078,-96.27 786.891,-92.2755 776.729,-89.2788 777.078,-96.27"/>
</g>
<!-- I.11 -->
<g id="node25" class="node"><title>I.11</title>
<g id="a_node25"><a xlink:href="https://mathcs.clarku.edu/~djoyce/elements/bookI/propI11.html" xlink:title="I.11">
<ellipse fill="lightyellow" stroke="black" cx="575" cy="-882" rx="27" ry="18"/>
<text text-anchor="middle" x="575" y="-878.3" font-family="Times New Roman,serif" font-size="14.00">I.11</text>
</a>
</g>
</g>
<!-- Post.1&#45;&gt;I.11 -->
<g id="edge36" class="edge"><title>Post.1&#45;&gt;I.11</title>
<path fill="none" stroke="green" d="M843.74,-1375.48C834.93,-1372.76 825.13,-1370 816,-1368 759.028,-1355.49 596.518,-1373.96 556,-1332 483.685,-1257.11 532,-1203.1 532,-1099 532,-1099 532,-1099 532,-1025 532,-982.789 549.62,-936.431 562.302,-908.533"/>
<polygon fill="green" stroke="green" points="565.634,-909.672 566.709,-899.132 559.296,-906.701 565.634,-909.672"/>
</g>
<!-- I.23 -->
<g id="node27" class="node"><title>I.23</title>
<g id="a_node27"><a xlink:href="https://mathcs.clarku.edu/~djoyce/elements/bookI/propI23.html" xlink:title="I.23">
<ellipse fill="lightyellow" stroke="black" cx="527" cy="-306" rx="27" ry="18"/>
<text text-anchor="middle" x="527" y="-302.3" font-family="Times New Roman,serif" font-size="14.00">I.23</text>
</a>
</g>
</g>
<!-- Post.1&#45;&gt;I.23 -->
<g id="edge44" class="edge"><title>Post.1&#45;&gt;I.23</title>
<path fill="none" stroke="green" d="M844.054,-1375.44C835.172,-1372.69 825.252,-1369.92 816,-1368 679.331,-1339.61 634.206,-1382.31 504,-1332 440.722,-1307.55 380,-1310.84 380,-1243 380,-1243 380,-1243 380,-1097 380,-857.459 157.275,-800.057 242,-576 289.726,-449.789 434.546,-357.689 497.383,-322.593"/>
<polygon fill="green" stroke="green" points="499.311,-325.527 506.388,-317.642 495.939,-319.393 499.311,-325.527"/>
</g>
<!-- I.1 -->
<g id="node32" class="node"><title>I.1</title>
<g id="a_node32"><a xlink:href="https://mathcs.clarku.edu/~djoyce/elements/bookI/propI1.html" xlink:title="I.1">
<ellipse fill="lightyellow" stroke="black" cx="674" cy="-1314" rx="27" ry="18"/>
<text text-anchor="middle" x="674" y="-1310.3" font-family="Times New Roman,serif" font-size="14.00">I.1</text>
</a>
</g>
</g>
<!-- Post.1&#45;&gt;I.1 -->
<g id="edge64" class="edge"><title>Post.1&#45;&gt;I.1</title>
<path fill="none" stroke="green" d="M844.051,-1375.12C808.041,-1362.39 745.522,-1340.29 707.151,-1326.72"/>
<polygon fill="green" stroke="green" points="708.073,-1323.33 697.479,-1323.3 705.74,-1329.93 708.073,-1323.33"/>
</g>
<!-- I.2 -->
<g id="node33" class="node"><title>I.2</title>
<g id="a_node33"><a xlink:href="https://mathcs.clarku.edu/~djoyce/elements/bookI/propI2.html" xlink:title="I.2">
<ellipse fill="lightyellow" stroke="black" cx="891" cy="-1242" rx="27" ry="18"/>
<text text-anchor="middle" x="891" y="-1238.3" font-family="Times New Roman,serif" font-size="14.00">I.2</text>
</a>
</g>
</g>
<!-- Post.1&#45;&gt;I.2 -->
<g id="edge68" class="edge"><title>Post.1&#45;&gt;I.2</title>
<path fill="none" stroke="green" d="M868.392,-1368.06C865.16,-1350 861.677,-1320.66 867,-1296 869.044,-1286.53 872.925,-1276.72 876.98,-1268.15"/>
<polygon fill="green" stroke="green" points="880.172,-1269.59 881.543,-1259.08 873.919,-1266.44 880.172,-1269.59"/>
</g>
<!-- I.16 -->
<g id="node36" class="node"><title>I.16</title>
<g id="a_node36"><a xlink:href="https://mathcs.clarku.edu/~djoyce/elements/bookI/propI16.html" xlink:title="I.16">
<ellipse fill="lightyellow" stroke="black" cx="1279" cy="-666" rx="27" ry="18"/>
<text text-anchor="middle" x="1279" y="-662.3" font-family="Times New Roman,serif" font-size="14.00">I.16</text>
</a>
</g>
</g>
<!-- Post.1&#45;&gt;I.16 -->
<g id="edge82" class="edge"><title>Post.1&#45;&gt;I.16</title>
<path fill="none" stroke="green" d="M881.827,-1368.75C901.956,-1333.85 946,-1248.64 946,-1171 946,-1171 946,-1171 946,-1097 946,-1020.32 966.085,-1000.21 1008,-936 1079.23,-826.89 1200.84,-726.749 1253.47,-686.126"/>
<polygon fill="green" stroke="green" points="1255.79,-688.762 1261.6,-679.904 1251.53,-683.203 1255.79,-688.762"/>
</g>
<!-- I.22 -->
<g id="node37" class="node"><title>I.22</title>
<g id="a_node37"><a xlink:href="https://mathcs.clarku.edu/~djoyce/elements/bookI/propI22.html" xlink:title="I.22">
<ellipse fill="lightyellow" stroke="black" cx="527" cy="-378" rx="27" ry="18"/>
<text text-anchor="middle" x="527" y="-374.3" font-family="Times New Roman,serif" font-size="14.00">I.22</text>
</a>
</g>
</g>
<!-- Post.1&#45;&gt;I.22 -->
<g id="edge92" class="edge"><title>Post.1&#45;&gt;I.22</title>
<path fill="none" stroke="green" d="M848.57,-1372.75C798.173,-1344.51 684,-1269.66 684,-1171 684,-1171 684,-1171 684,-953 684,-908.473 668.472,-896.467 638,-864 616.718,-841.324 597.905,-851.894 578,-828 556.125,-801.742 558.164,-789.417 551,-756 523.443,-627.449 524.327,-469.053 526.008,-406.38"/>
<polygon fill="green" stroke="green" points="529.513,-406.253 526.313,-396.153 522.516,-406.044 529.513,-406.253"/>
</g>
<!-- I.26 -->
<g id="node38" class="node"><title>I.26</title>
<g id="a_node38"><a xlink:href="https://mathcs.clarku.edu/~djoyce/elements/bookI/propI26.html" xlink:title="I.26">
<ellipse fill="lightyellow" stroke="black" cx="1246" cy="-594" rx="27" ry="18"/>
<text text-anchor="middle" x="1246" y="-590.3" font-family="Times New Roman,serif" font-size="14.00">I.26</text>
</a>
</g>
</g>
<!-- Post.1&#45;&gt;I.26 -->
<g id="edge96" class="edge"><title>Post.1&#45;&gt;I.26</title>
<path fill="none" stroke="green" d="M891.851,-1371.29C904.863,-1361.51 921.526,-1347.42 933,-1332 974.919,-1275.67 970.007,-1252.4 998,-1188 1092.81,-969.9 1201.63,-703.973 1235.43,-620.991"/>
<polygon fill="green" stroke="green" points="1238.74,-622.161 1239.26,-611.579 1232.25,-619.521 1238.74,-622.161"/>
</g>
<!-- I.7 -->
<g id="node40" class="node"><title>I.7</title>
<g id="a_node40"><a xlink:href="https://mathcs.clarku.edu/~djoyce/elements/bookI/propI7.html" xlink:title="I.7">
<ellipse fill="lightyellow" stroke="black" cx="1191" cy="-1026" rx="27" ry="18"/>
<text text-anchor="middle" x="1191" y="-1022.3" font-family="Times New Roman,serif" font-size="14.00">I.7</text>
</a>
</g>
</g>
<!-- Post.1&#45;&gt;I.7 -->
<g id="edge106" class="edge"><title>Post.1&#45;&gt;I.7</title>
<path fill="none" stroke="green" d="M898.308,-1374.12C904.083,-1371.94 910.204,-1369.77 916,-1368 984.882,-1346.97 1019.58,-1379.18 1074,-1332 1159.32,-1258.03 1182.7,-1114.62 1188.87,-1054.54"/>
<polygon fill="green" stroke="green" points="1192.38,-1054.61 1189.84,-1044.32 1185.41,-1053.95 1192.38,-1054.61"/>
</g>
<!-- I.20 -->
<g id="node42" class="node"><title>I.20</title>
<g id="a_node42"><a xlink:href="https://mathcs.clarku.edu/~djoyce/elements/bookI/propI20.html" xlink:title="I.20">
<ellipse fill="lightyellow" stroke="black" cx="1636" cy="-450" rx="27" ry="18"/>
<text text-anchor="middle" x="1636" y="-446.3" font-family="Times New Roman,serif" font-size="14.00">I.20</text>
</a>
</g>
</g>
<!-- Post.1&#45;&gt;I.20 -->
<g id="edge116" class="edge"><title>Post.1&#45;&gt;I.20</title>
<path fill="none" stroke="green" d="M897.691,-1373.75C903.61,-1371.54 909.947,-1369.45 916,-1368 993.116,-1349.55 1211.95,-1384.92 1271,-1332 1301.12,-1305 1290,-1283.45 1290,-1243 1290,-1243 1290,-1243 1290,-1169 1290,-967.705 1424.27,-955.989 1541,-792 1581.47,-735.153 1636,-736.779 1636,-667 1636,-667 1636,-667 1636,-593 1636,-552.996 1636,-506.653 1636,-478.08"/>
<polygon fill="green" stroke="green" points="1639.5,-478.049 1636,-468.049 1632.5,-478.049 1639.5,-478.049"/>
</g>
<!-- I.5 -->
<g id="node43" class="node"><title>I.5</title>
<g id="a_node43"><a xlink:href="https://mathcs.clarku.edu/~djoyce/elements/bookI/propI5.html" xlink:title="I.5">
<ellipse fill="lightyellow" stroke="black" cx="1687" cy="-1098" rx="27" ry="18"/>
<text text-anchor="middle" x="1687" y="-1094.3" font-family="Times New Roman,serif" font-size="14.00">I.5</text>
</a>
</g>
</g>
<!-- Post.1&#45;&gt;I.5 -->
<g id="edge123" class="edge"><title>Post.1&#45;&gt;I.5</title>
<path fill="none" stroke="green" d="M897.682,-1373.72C903.602,-1371.5 909.941,-1369.42 916,-1368 1081.43,-1329.16 1543.29,-1369.78 1673,-1260 1710.77,-1228.04 1705.94,-1201.12 1700,-1152 1698.96,-1143.4 1697.01,-1134.19 1694.92,-1125.89"/>
<polygon fill="green" stroke="green" points="1698.24,-1124.75 1692.27,-1115.99 1691.48,-1126.56 1698.24,-1124.75"/>
</g>
<!-- I.9 -->
<g id="node44" class="node"><title>I.9</title>
<g id="a_node44"><a xlink:href="https://mathcs.clarku.edu/~djoyce/elements/bookI/propI9.html" xlink:title="I.9">
<ellipse fill="lightyellow" stroke="black" cx="1577" cy="-882" rx="27" ry="18"/>
<text text-anchor="middle" x="1577" y="-878.3" font-family="Times New Roman,serif" font-size="14.00">I.9</text>
</a>
</g>
</g>
<!-- Post.1&#45;&gt;I.9 -->
<g id="edge127" class="edge"><title>Post.1&#45;&gt;I.9</title>
<path fill="none" stroke="green" d="M897.648,-1373.56C903.569,-1371.35 909.918,-1369.32 916,-1368 1183.58,-1309.96 1261.51,-1380.38 1531,-1332 1664.12,-1308.1 1822,-1378.25 1822,-1243 1822,-1243 1822,-1243 1822,-1097 1822,-1040.08 1670.08,-940.106 1605.5,-900.18"/>
<polygon fill="green" stroke="green" points="1606.99,-896.986 1596.64,-894.737 1603.33,-902.951 1606.99,-896.986"/>
</g>
<!-- I.18 -->
<g id="node46" class="node"><title>I.18</title>
<g id="a_node46"><a xlink:href="https://mathcs.clarku.edu/~djoyce/elements/bookI/propI18.html" xlink:title="I.18">
<ellipse fill="lightyellow" stroke="black" cx="1930" cy="-594" rx="27" ry="18"/>
<text text-anchor="middle" x="1930" y="-590.3" font-family="Times New Roman,serif" font-size="14.00">I.18</text>
</a>
</g>
</g>
<!-- Post.1&#45;&gt;I.18 -->
<g id="edge134" class="edge"><title>Post.1&#45;&gt;I.18</title>
<path fill="none" stroke="green" d="M897.159,-1373.63C903.214,-1371.36 909.743,-1369.28 916,-1368 1025.68,-1345.51 1829.08,-1392.95 1923,-1332 2042.55,-1254.42 2031.84,-1182.84 2064,-1044 2071.83,-1010.19 2080.69,-969.275 2058,-864 2036.2,-762.828 2022.48,-737.78 1971,-648 1964.97,-637.492 1957.07,-626.764 1949.81,-617.733"/>
<polygon fill="green" stroke="green" points="1952.46,-615.451 1943.39,-609.972 1947.06,-619.91 1952.46,-615.451"/>
</g>
<!-- Post.2 -->
<g id="node2" class="node"><title>Post.2</title>
<g id="a_node2"><a xlink:href="https://mathcs.clarku.edu/~djoyce/elements/bookI/post2.html" xlink:title="Post.2">
<ellipse fill="lightblue" stroke="black" cx="1228" cy="-1314" rx="34.394" ry="18"/>
<text text-anchor="middle" x="1228" y="-1310.3" font-family="Times New Roman,serif" font-size="14.00">Post.2</text>
</a>
</g>
</g>
<!-- I.14 -->
<g id="node20" class="node"><title>I.14</title>
<g id="a_node20"><a xlink:href="https://mathcs.clarku.edu/~djoyce/elements/bookI/propI14.html" xlink:title="I.14">
<ellipse fill="lightyellow" stroke="black" cx="587" cy="-738" rx="27" ry="18"/>
<text text-anchor="middle" x="587" y="-734.3" font-family="Times New Roman,serif" font-size="14.00">I.14</text>
</a>
</g>
</g>
<!-- Post.2&#45;&gt;I.14 -->
<g id="edge11" class="edge"><title>Post.2&#45;&gt;I.14</title>
<path fill="none" stroke="green" d="M1193.55,-1311.43C1088.93,-1306.37 779.921,-1289.07 746,-1260 714.89,-1233.34 722,-1211.97 722,-1171 722,-1171 722,-1171 722,-953 722,-912.031 725.94,-893.963 698,-864 664.642,-828.227 623.913,-866.7 594,-828 580.564,-810.617 579.861,-785.198 581.91,-765.971"/>
<polygon fill="green" stroke="green" points="585.384,-766.398 583.268,-756.016 578.448,-765.452 585.384,-766.398"/>
</g>
<!-- Post.2&#45;&gt;I.31 -->
<g id="edge18" class="edge"><title>Post.2&#45;&gt;I.31</title>
<path fill="none" stroke="green" d="M1193.83,-1311.48C1094.51,-1306.73 811.154,-1290.59 784,-1260 730.89,-1200.17 765.333,-1157.79 784,-1080 799.986,-1013.38 862.056,-1000.51 839,-936 817.876,-876.894 787.497,-876.783 748,-828 722.996,-797.118 715.738,-789.894 695,-756 676.327,-725.482 674.185,-716.395 659,-684 640.671,-644.896 620,-638.187 620,-595 620,-595 620,-595 620,-377 620,-326.843 578.893,-280.613 551.338,-255.258"/>
<polygon fill="green" stroke="green" points="553.418,-252.424 543.627,-248.376 548.757,-257.646 553.418,-252.424"/>
</g>
<!-- I.37 -->
<g id="node31" class="node"><title>I.37</title>
<g id="a_node31"><a xlink:href="https://mathcs.clarku.edu/~djoyce/elements/bookI/propI37.html" xlink:title="I.37">
<ellipse fill="lightyellow" stroke="black" cx="838" cy="-162" rx="27" ry="18"/>
<text text-anchor="middle" x="838" y="-158.3" font-family="Times New Roman,serif" font-size="14.00">I.37</text>
</a>
</g>
</g>
<!-- Post.2&#45;&gt;I.37 -->
<g id="edge58" class="edge"><title>Post.2&#45;&gt;I.37</title>
<path fill="none" stroke="green" d="M1193.78,-1311.03C1101.03,-1305.35 850.162,-1287.56 826,-1260 815.452,-1247.97 825.053,-1239.97 826,-1224 832.678,-1111.41 847.369,-1084.46 856,-972 860.901,-908.149 859.889,-892.029 861,-828 861.278,-812.002 863.037,-807.87 861,-792 841.06,-636.642 772,-607.632 772,-451 772,-451 772,-451 772,-305 772,-259.618 800.064,-213.042 819.592,-186.125"/>
<polygon fill="green" stroke="green" points="822.404,-188.209 825.586,-178.104 816.796,-184.019 822.404,-188.209"/>
</g>
<!-- Post.2&#45;&gt;I.2 -->
<g id="edge70" class="edge"><title>Post.2&#45;&gt;I.2</title>
<path fill="none" stroke="green" d="M1196.6,-1306.48C1133.63,-1293.4 992.314,-1264.04 926.271,-1250.33"/>
<polygon fill="green" stroke="green" points="926.844,-1246.87 916.342,-1248.26 925.421,-1253.72 926.844,-1246.87"/>
</g>
<!-- Post.2&#45;&gt;I.16 -->
<g id="edge83" class="edge"><title>Post.2&#45;&gt;I.16</title>
<path fill="none" stroke="green" d="M1262.45,-1311.77C1314.82,-1308.7 1416.48,-1297.9 1493,-1260 1546.61,-1233.45 1594,-1230.83 1594,-1171 1594,-1171 1594,-1171 1594,-1097 1594,-961.182 1688.01,-905.227 1613,-792 1546.52,-691.64 1388.35,-671.622 1316.12,-667.798"/>
<polygon fill="green" stroke="green" points="1316.26,-664.301 1306.11,-667.344 1315.94,-671.294 1316.26,-664.301"/>
</g>
<!-- Post.2&#45;&gt;I.22 -->
<g id="edge89" class="edge"><title>Post.2&#45;&gt;I.22</title>
<path fill="none" stroke="green" d="M1261.63,-1310.03C1332.77,-1303.34 1495.97,-1285.6 1545,-1260 1594.03,-1234.4 1632,-1226.32 1632,-1171 1632,-1171 1632,-1171 1632,-1097 1632,-961.426 1691.65,-916.071 1637,-792 1571.08,-642.343 1553.9,-577.857 1408,-504 1297.96,-448.297 1261.46,-453.395 1140,-432 924.018,-393.957 660.205,-382.845 564.188,-379.936"/>
<polygon fill="green" stroke="green" points="564.206,-376.436 554.109,-379.643 564.002,-383.433 564.206,-376.436"/>
</g>
<!-- Post.2&#45;&gt;I.20 -->
<g id="edge114" class="edge"><title>Post.2&#45;&gt;I.20</title>
<path fill="none" stroke="green" d="M1262.01,-1311.14C1348.89,-1306 1576.97,-1289.97 1646,-1260 1757.74,-1211.48 2044,-1004.82 2044,-883 2044,-883 2044,-883 2044,-809 2044,-666.888 2235.09,-609.612 2140,-504 2108.85,-469.399 1784.64,-455.783 1673.3,-452.105"/>
<polygon fill="green" stroke="green" points="1673.31,-448.603 1663.21,-451.779 1673.09,-455.6 1673.31,-448.603"/>
</g>
<!-- Post.2&#45;&gt;I.5 -->
<g id="edge121" class="edge"><title>Post.2&#45;&gt;I.5</title>
<path fill="none" stroke="green" d="M1262.49,-1313.43C1352.13,-1313.83 1589.41,-1310.02 1646,-1260 1684,-1226.42 1689.14,-1163.03 1688.64,-1126.61"/>
<polygon fill="green" stroke="green" points="1692.12,-1126.13 1688.33,-1116.24 1685.13,-1126.34 1692.12,-1126.13"/>
</g>
<!-- Post.3 -->
<g id="node3" class="node"><title>Post.3</title>
<g id="a_node3"><a xlink:href="https://mathcs.clarku.edu/~djoyce/elements/bookI/post3.html" xlink:title="Post.3">
<ellipse fill="lightblue" stroke="black" cx="674" cy="-1386" rx="34.394" ry="18"/>
<text text-anchor="middle" x="674" y="-1382.3" font-family="Times New Roman,serif" font-size="14.00">Post.3</text>
</a>
</g>
</g>
<!-- I.3 -->
<g id="node24" class="node"><title>I.3</title>
<g id="a_node24"><a xlink:href="https://mathcs.clarku.edu/~djoyce/elements/bookI/propI3.html" xlink:title="I.3">
<ellipse fill="lightyellow" stroke="black" cx="266" cy="-1170" rx="27" ry="18"/>
<text text-anchor="middle" x="266" y="-1166.3" font-family="Times New Roman,serif" font-size="14.00">I.3</text>
</a>
</g>
</g>
<!-- Post.3&#45;&gt;I.3 -->
<g id="edge31" class="edge"><title>Post.3&#45;&gt;I.3</title>
<path fill="none" stroke="green" d="M639.361,-1384.21C526.045,-1381.29 171.707,-1369.2 138,-1332 105.772,-1296.43 111.33,-1263.91 138,-1224 158.143,-1193.86 198.94,-1180.84 229.086,-1175.22"/>
<polygon fill="green" stroke="green" points="229.964,-1178.63 239.253,-1173.53 228.814,-1171.72 229.964,-1178.63"/>
</g>
<!-- Post.3&#45;&gt;I.1 -->
<g id="edge63" class="edge"><title>Post.3&#45;&gt;I.1</title>
<path fill="none" stroke="green" d="M674,-1367.7C674,-1359.98 674,-1350.71 674,-1342.11"/>
<polygon fill="green" stroke="green" points="677.5,-1342.1 674,-1332.1 670.5,-1342.1 677.5,-1342.1"/>
</g>
<!-- Post.3&#45;&gt;I.2 -->
<g id="edge71" class="edge"><title>Post.3&#45;&gt;I.2</title>
<path fill="none" stroke="green" d="M694.807,-1371.38C734.306,-1345.54 820.117,-1289.38 863.99,-1260.67"/>
<polygon fill="green" stroke="green" points="865.98,-1263.56 872.431,-1255.15 862.147,-1257.7 865.98,-1263.56"/>
</g>
<!-- Post.3&#45;&gt;I.22 -->
<g id="edge91" class="edge"><title>Post.3&#45;&gt;I.22</title>
<path fill="none" stroke="green" d="M688.134,-1369.43C702.554,-1351.55 721.324,-1321.43 710,-1296 700.269,-1274.15 682.515,-1280.38 670,-1260 648.562,-1225.09 646,-1211.97 646,-1171 646,-1171 646,-1171 646,-1025 646,-951.773 658.607,-919.639 611,-864 582.185,-830.323 543.053,-864.562 518,-828 425.821,-693.474 490.278,-479.042 516.949,-405.081"/>
<polygon fill="green" stroke="green" points="520.27,-406.193 520.442,-395.6 513.701,-403.773 520.27,-406.193"/>
</g>
<!-- Post.4 -->
<g id="node4" class="node"><title>Post.4</title>
<g id="a_node4"><a xlink:href="https://mathcs.clarku.edu/~djoyce/elements/bookI/post4.html" xlink:title="Post.4">
<ellipse fill="lightblue" stroke="black" cx="670" cy="-810" rx="34.394" ry="18"/>
<text text-anchor="middle" x="670" y="-806.3" font-family="Times New Roman,serif" font-size="14.00">Post.4</text>
</a>
</g>
</g>
<!-- Post.4&#45;&gt;I.47 -->
<g id="edge6" class="edge"><title>Post.4&#45;&gt;I.47</title>
<path fill="none" stroke="green" d="M644.047,-798.009C525.121,-746.836 38,-528.133 38,-379 38,-379 38,-379 38,-161 38,-98.3851 107.886,-53.9185 149.946,-32.8268"/>
<polygon fill="green" stroke="green" points="151.503,-35.9616 158.97,-28.4446 148.445,-29.6649 151.503,-35.9616"/>
</g>
<!-- Post.4&#45;&gt;I.14 -->
<g id="edge13" class="edge"><title>Post.4&#45;&gt;I.14</title>
<path fill="none" stroke="green" d="M652.398,-794.155C640.339,-783.985 624.197,-770.371 610.968,-759.214"/>
<polygon fill="green" stroke="green" points="613.07,-756.408 603.169,-752.637 608.557,-761.759 613.07,-756.408"/>
</g>
<!-- I.46 -->
<g id="node23" class="node"><title>I.46</title>
<g id="a_node23"><a xlink:href="https://mathcs.clarku.edu/~djoyce/elements/bookI/propI46.html" xlink:title="I.46">
<ellipse fill="lightyellow" stroke="black" cx="307" cy="-162" rx="27" ry="18"/>
<text text-anchor="middle" x="307" y="-158.3" font-family="Times New Roman,serif" font-size="14.00">I.46</text>
</a>
</g>
</g>
<!-- Post.4&#45;&gt;I.46 -->
<g id="edge28" class="edge"><title>Post.4&#45;&gt;I.46</title>
<path fill="none" stroke="green" d="M662.673,-792.212C654.278,-773.765 639.532,-743.621 623,-720 536.394,-596.259 468.492,-599.952 395,-468 342.583,-373.887 318.907,-245.676 310.642,-190.307"/>
<polygon fill="green" stroke="green" points="314.081,-189.635 309.19,-180.236 307.153,-190.633 314.081,-189.635"/>
</g>
<!-- I.15 -->
<g id="node35" class="node"><title>I.15</title>
<g id="a_node35"><a xlink:href="https://mathcs.clarku.edu/~djoyce/elements/bookI/propI15.html" xlink:title="I.15">
<ellipse fill="lightyellow" stroke="black" cx="1011" cy="-738" rx="27" ry="18"/>
<text text-anchor="middle" x="1011" y="-734.3" font-family="Times New Roman,serif" font-size="14.00">I.15</text>
</a>
</g>
</g>
<!-- Post.4&#45;&gt;I.15 -->
<g id="edge78" class="edge"><title>Post.4&#45;&gt;I.15</title>
<path fill="none" stroke="green" d="M702.833,-804.435C770.733,-794.808 924.466,-771.999 975,-756 976.927,-755.39 978.884,-754.697 980.839,-753.949"/>
<polygon fill="green" stroke="green" points="982.61,-756.999 990.444,-749.867 979.872,-750.557 982.61,-756.999"/>
</g>
<!-- Post.5 -->
<g id="node5" class="node"><title>Post.5</title>
<g id="a_node5"><a xlink:href="https://mathcs.clarku.edu/~djoyce/elements/bookI/post5.html" xlink:title="Post.5">
<ellipse fill="lightblue" stroke="black" cx="932" cy="-738" rx="34.394" ry="18"/>
<text text-anchor="middle" x="932" y="-734.3" font-family="Times New Roman,serif" font-size="14.00">Post.5</text>
</a>
</g>
</g>
<!-- I.29 -->
<g id="node29" class="node"><title>I.29</title>
<g id="a_node29"><a xlink:href="https://mathcs.clarku.edu/~djoyce/elements/bookI/propI29.html" xlink:title="I.29">
<ellipse fill="lightyellow" stroke="black" cx="929" cy="-666" rx="27" ry="18"/>
<text text-anchor="middle" x="929" y="-662.3" font-family="Times New Roman,serif" font-size="14.00">I.29</text>
</a>
</g>
</g>
<!-- Post.5&#45;&gt;I.29 -->
<g id="edge50" class="edge"><title>Post.5&#45;&gt;I.29</title>
<path fill="none" stroke="green" d="M931.258,-719.697C930.928,-711.983 930.531,-702.712 930.162,-694.112"/>
<polygon fill="green" stroke="green" points="933.658,-693.945 929.733,-684.104 926.665,-694.245 933.658,-693.945"/>
</g>
<!-- C.N -->
<g id="node6" class="node"><title>C.N</title>
<g id="a_node6"><a xlink:href="https://mathcs.clarku.edu/~djoyce/elements/bookI/cn.html" xlink:title="C.N">
<ellipse fill="darksalmon" stroke="black" cx="1115" cy="-1098" rx="27" ry="18"/>
<text text-anchor="middle" x="1115" y="-1094.3" font-family="Times New Roman,serif" font-size="14.00">C.N</text>
</a>
</g>
</g>
<!-- C.N&#45;&gt;I.37 -->
<g id="edge62" class="edge"><title>C.N&#45;&gt;I.37</title>
<path fill="none" stroke="green" d="M1099.11,-1083.21C1065.2,-1053.04 984.925,-977.672 937,-900 934.746,-896.347 881.791,-760.218 881,-756 878.05,-740.274 880.797,-735.999 881,-720 882.111,-632.423 886,-610.584 886,-523 886,-523 886,-523 886,-305 886,-262.168 866.158,-215.713 851.988,-188"/>
<polygon fill="green" stroke="green" points="855.013,-186.232 847.255,-179.016 848.82,-189.495 855.013,-186.232"/>
</g>
<!-- C.N&#45;&gt;I.7 -->
<g id="edge109" class="edge"><title>C.N&#45;&gt;I.7</title>
<path fill="none" stroke="green" d="M1130.38,-1082.83C1141.2,-1072.87 1155.86,-1059.37 1168.05,-1048.14"/>
<polygon fill="green" stroke="green" points="1170.66,-1050.49 1175.64,-1041.14 1165.92,-1045.34 1170.66,-1050.49"/>
</g>
<!-- C.N.1 -->
<g id="node7" class="node"><title>C.N.1</title>
<g id="a_node7"><a xlink:href="https://mathcs.clarku.edu/~djoyce/elements/bookI/cn.html" xlink:title="C.N.1">
<ellipse fill="darksalmon" stroke="black" cx="957" cy="-1386" rx="32.4942" ry="18"/>
<text text-anchor="middle" x="957" y="-1382.3" font-family="Times New Roman,serif" font-size="14.00">C.N.1</text>
</a>
</g>
</g>
<!-- C.N.1&#45;&gt;I.14 -->
<g id="edge14" class="edge"><title>C.N.1&#45;&gt;I.14</title>
<path fill="none" stroke="green" d="M932.52,-1373.71C926.868,-1371.5 920.807,-1369.42 915,-1368 833.686,-1348.09 610.039,-1377.86 540,-1332 458.225,-1278.46 456,-1067.81 456,-1027 456,-1027 456,-1027 456,-953 456,-871.663 525.689,-795.132 563.41,-759.666"/>
<polygon fill="green" stroke="green" points="565.952,-762.083 570.937,-752.734 561.21,-756.933 565.952,-762.083"/>
</g>
<!-- C.N.1&#45;&gt;I.3 -->
<g id="edge33" class="edge"><title>C.N.1&#45;&gt;I.3</title>
<path fill="none" stroke="green" d="M932.979,-1373.83C927.2,-1371.55 920.969,-1369.42 915,-1368 726.274,-1323.1 661.299,-1401.03 480,-1332 398.87,-1301.11 322.244,-1229.63 286.711,-1193.21"/>
<polygon fill="green" stroke="green" points="289.223,-1190.77 279.766,-1185.99 284.18,-1195.62 289.223,-1190.77"/>
</g>
<!-- I.13 -->
<g id="node26" class="node"><title>I.13</title>
<g id="a_node26"><a xlink:href="https://mathcs.clarku.edu/~djoyce/elements/bookI/propI13.html" xlink:title="I.13">
<ellipse fill="lightyellow" stroke="black" cx="825" cy="-810" rx="27" ry="18"/>
<text text-anchor="middle" x="825" y="-806.3" font-family="Times New Roman,serif" font-size="14.00">I.13</text>
</a>
</g>
</g>
<!-- C.N.1&#45;&gt;I.13 -->
<g id="edge43" class="edge"><title>C.N.1&#45;&gt;I.13</title>
<path fill="none" stroke="green" d="M932.506,-1373.77C926.855,-1371.55 920.798,-1369.46 915,-1368 843.029,-1349.91 641.763,-1377.32 583,-1332 495.221,-1264.3 494,-1209.85 494,-1099 494,-1099 494,-1099 494,-953 494,-908.676 503.526,-890.575 539,-864 548.988,-856.518 714.12,-828.983 788.813,-816.83"/>
<polygon fill="green" stroke="green" points="789.416,-820.278 798.726,-815.221 788.295,-813.368 789.416,-820.278"/>
</g>
<!-- C.N.1&#45;&gt;I.29 -->
<g id="edge52" class="edge"><title>C.N.1&#45;&gt;I.29</title>
<path fill="none" stroke="green" d="M932.506,-1373.77C926.855,-1371.55 920.798,-1369.46 915,-1368 843.029,-1349.91 642.695,-1376.09 583,-1332 444.775,-1229.92 469.525,-1141.62 442,-972 422.453,-851.548 446.475,-782.971 551,-720 607.947,-685.692 782.406,-694.838 848,-684 863.172,-681.493 879.816,-678.111 894.048,-675.024"/>
<polygon fill="green" stroke="green" points="894.918,-678.416 903.93,-672.845 893.411,-671.58 894.918,-678.416"/>
</g>
<!-- C.N.1&#45;&gt;I.1 -->
<g id="edge66" class="edge"><title>C.N.1&#45;&gt;I.1</title>
<path fill="none" stroke="green" d="M932.377,-1374.23C926.732,-1371.99 920.71,-1369.77 915,-1368 843.67,-1345.89 757.739,-1329.32 710.164,-1320.99"/>
<polygon fill="green" stroke="green" points="710.501,-1317.5 700.051,-1319.25 709.31,-1324.4 710.501,-1317.5"/>
</g>
<!-- C.N.1&#45;&gt;I.2 -->
<g id="edge74" class="edge"><title>C.N.1&#45;&gt;I.2</title>
<path fill="none" stroke="green" d="M954.505,-1367.86C951.338,-1349.37 944.81,-1319.44 933,-1296 927.499,-1285.08 919.525,-1274.28 911.999,-1265.3"/>
<polygon fill="green" stroke="green" points="914.509,-1262.85 905.298,-1257.62 909.234,-1267.46 914.509,-1262.85"/>
</g>
<!-- C.N.1&#45;&gt;I.15 -->
<g id="edge79" class="edge"><title>C.N.1&#45;&gt;I.15</title>
<path fill="none" stroke="green" d="M989.573,-1384.46C1154.42,-1381.55 1890.2,-1366.65 1923,-1332 2108.29,-1136.26 1900.61,-883.274 1647,-792 1535.56,-751.89 1166.67,-741.81 1048.07,-739.576"/>
<polygon fill="green" stroke="green" points="1048.09,-736.076 1038.03,-739.395 1047.96,-743.075 1048.09,-736.076"/>
</g>
<!-- C.N.1&#45;&gt;I.22 -->
<g id="edge94" class="edge"><title>C.N.1&#45;&gt;I.22</title>
<path fill="none" stroke="green" d="M989.574,-1384.82C1151.39,-1383.7 1864.51,-1376.3 1952,-1332 2108.37,-1252.82 2202,-1202.27 2202,-1027 2202,-1027 2202,-1027 2202,-521 2202,-475.55 2892.75,-548.928 1672,-432 1237.66,-390.397 707.386,-381.18 564.137,-379.391"/>
<polygon fill="green" stroke="green" points="564.159,-375.891 554.118,-379.27 564.075,-382.89 564.159,-375.891"/>
</g>
<!-- C.N.1&#45;&gt;I.26 -->
<g id="edge98" class="edge"><title>C.N.1&#45;&gt;I.26</title>
<path fill="none" stroke="green" d="M989.685,-1384.59C1168.63,-1382.2 2023.07,-1368.89 2064,-1332 2147.91,-1256.38 2139.49,-1184.66 2097,-1080 2063.42,-997.295 2027.69,-990.5 1957,-936 1725.93,-757.857 1386.81,-639.986 1279.71,-605.5"/>
<polygon fill="green" stroke="green" points="1280.67,-602.133 1270.08,-602.424 1278.54,-608.801 1280.67,-602.133"/>
</g>
<!-- I.35 -->
<g id="node39" class="node"><title>I.35</title>
<g id="a_node39"><a xlink:href="https://mathcs.clarku.edu/~djoyce/elements/bookI/propI35.html" xlink:title="I.35">
<ellipse fill="lightyellow" stroke="black" cx="1104" cy="-450" rx="27" ry="18"/>
<text text-anchor="middle" x="1104" y="-446.3" font-family="Times New Roman,serif" font-size="14.00">I.35</text>
</a>
</g>
</g>
<!-- C.N.1&#45;&gt;I.35 -->
<g id="edge101" class="edge"><title>C.N.1&#45;&gt;I.35</title>
<path fill="none" stroke="green" d="M989.549,-1384.45C1164.26,-1381.38 1986.95,-1365.25 2095,-1332 2167.27,-1309.76 2240,-1318.62 2240,-1243 2240,-1243 2240,-1243 2240,-953 2240,-710.502 2147.08,-612.087 1930,-504 1894.24,-486.195 1297.26,-459.328 1141.12,-452.58"/>
<polygon fill="green" stroke="green" points="1141.21,-449.081 1131.07,-452.147 1140.91,-456.074 1141.21,-449.081"/>
</g>
<!-- C.N.2 -->
<g id="node8" class="node"><title>C.N.2</title>
<g id="a_node8"><a xlink:href="https://mathcs.clarku.edu/~djoyce/elements/bookI/cn.html" xlink:title="C.N.2">
<ellipse fill="darksalmon" stroke="black" cx="978" cy="-882" rx="32.4942" ry="18"/>
<text text-anchor="middle" x="978" y="-878.3" font-family="Times New Roman,serif" font-size="14.00">C.N.2</text>
</a>
</g>
</g>
<!-- C.N.2&#45;&gt;I.47 -->
<g id="edge7" class="edge"><title>C.N.2&#45;&gt;I.47</title>
<path fill="none" stroke="green" d="M946.022,-878.184C906.247,-873.376 837.654,-860.688 789,-828 755.35,-805.392 694.109,-720.752 677,-684 659.93,-647.332 658,-635.447 658,-595 658,-595 658,-595 658,-521 658,-416.897 678.391,-382.165 634,-288 614.836,-247.349 599.201,-242.632 563,-216 444.412,-128.759 281.719,-58.9788 213.341,-31.5636"/>
<polygon fill="green" stroke="green" points="214.538,-28.2733 203.953,-27.8291 211.951,-34.7776 214.538,-28.2733"/>
</g>
<!-- C.N.2&#45;&gt;I.13 -->
<g id="edge42" class="edge"><title>C.N.2&#45;&gt;I.13</title>
<path fill="none" stroke="green" d="M953.757,-869.908C927.26,-857.786 884.743,-838.334 855.879,-825.128"/>
<polygon fill="green" stroke="green" points="857.206,-821.886 846.656,-820.908 854.293,-828.251 857.206,-821.886"/>
</g>
<!-- C.N.2&#45;&gt;I.29 -->
<g id="edge53" class="edge"><title>C.N.2&#45;&gt;I.29</title>
<path fill="none" stroke="green" d="M971.635,-864.09C964.034,-845.266 950.052,-814.534 932,-792 916.417,-772.548 899.546,-778.583 889,-756 882.23,-741.503 883.918,-735.171 889,-720 892.813,-708.618 900.142,-697.727 907.495,-688.811"/>
<polygon fill="green" stroke="green" points="910.191,-691.045 914.155,-681.22 904.929,-686.428 910.191,-691.045"/>
</g>
<!-- I.34 -->
<g id="node30" class="node"><title>I.34</title>
<g id="a_node30"><a xlink:href="https://mathcs.clarku.edu/~djoyce/elements/bookI/propI34.html" xlink:title="I.34">
<ellipse fill="lightyellow" stroke="black" cx="962" cy="-522" rx="27" ry="18"/>
<text text-anchor="middle" x="962" y="-518.3" font-family="Times New Roman,serif" font-size="14.00">I.34</text>
</a>
</g>
</g>
<!-- C.N.2&#45;&gt;I.34 -->
<g id="edge56" class="edge"><title>C.N.2&#45;&gt;I.34</title>
<path fill="none" stroke="green" d="M992.094,-865.255C1015.48,-837.217 1058.63,-776.287 1047,-720 1033.48,-654.533 997.143,-584.041 976.624,-547.742"/>
<polygon fill="green" stroke="green" points="979.541,-545.792 971.53,-538.858 973.468,-549.274 979.541,-545.792"/>
</g>
<!-- C.N.2&#45;&gt;I.35 -->
<g id="edge102" class="edge"><title>C.N.2&#45;&gt;I.35</title>
<path fill="none" stroke="green" d="M998.906,-868.197C1013.02,-858.634 1031.17,-844.42 1043,-828 1087.74,-765.921 1104,-743.519 1104,-667 1104,-667 1104,-667 1104,-593 1104,-552.996 1104,-506.653 1104,-478.08"/>
<polygon fill="green" stroke="green" points="1107.5,-478.049 1104,-468.049 1100.5,-478.049 1107.5,-478.049"/>
</g>
<!-- C.N.3 -->
<g id="node9" class="node"><title>C.N.3</title>
<g id="a_node9"><a xlink:href="https://mathcs.clarku.edu/~djoyce/elements/bookI/cn.html" xlink:title="C.N.3">
<ellipse fill="darksalmon" stroke="black" cx="1882" cy="-1314" rx="32.4942" ry="18"/>
<text text-anchor="middle" x="1882" y="-1310.3" font-family="Times New Roman,serif" font-size="14.00">C.N.3</text>
</a>
</g>
</g>
<!-- C.N.3&#45;&gt;I.14 -->
<g id="edge15" class="edge"><title>C.N.3&#45;&gt;I.14</title>
<path fill="none" stroke="green" d="M1849.62,-1311.92C1677.08,-1306.1 873.009,-1278.05 855,-1260 753.166,-1157.94 912.174,-1060.23 839,-936 808.203,-883.717 777.449,-890.782 723,-864 682.111,-843.887 660.23,-859.18 627,-828 609.303,-811.395 598.887,-785.504 593.144,-765.92"/>
<polygon fill="green" stroke="green" points="596.469,-764.807 590.486,-756.063 589.71,-766.629 596.469,-764.807"/>
</g>
<!-- C.N.3&#45;&gt;I.2 -->
<g id="edge73" class="edge"><title>C.N.3&#45;&gt;I.2</title>
<path fill="none" stroke="green" d="M1849.87,-1310.73C1701.85,-1300.27 1086.07,-1256.78 928.076,-1245.62"/>
<polygon fill="green" stroke="green" points="928.143,-1242.11 917.921,-1244.9 927.649,-1249.1 928.143,-1242.11"/>
</g>
<!-- C.N.3&#45;&gt;I.15 -->
<g id="edge80" class="edge"><title>C.N.3&#45;&gt;I.15</title>
<path fill="none" stroke="green" d="M1880.74,-1295.73C1877.4,-1256.26 1866.42,-1156.87 1836,-1080 1795.66,-978.034 1633.8,-802.955 1613,-792 1514.2,-739.974 1163.51,-737.823 1048.12,-738.576"/>
<polygon fill="green" stroke="green" points="1047.98,-735.076 1038.01,-738.653 1048.04,-742.076 1047.98,-735.076"/>
</g>
<!-- C.N.3&#45;&gt;I.35 -->
<g id="edge105" class="edge"><title>C.N.3&#45;&gt;I.35</title>
<path fill="none" stroke="green" d="M1892.42,-1296.58C1925.91,-1242.57 2030.26,-1064.47 2058,-900 2082.9,-752.392 2050.23,-699.744 1966,-576 1939.82,-537.537 1932.62,-522.669 1890,-504 1820.95,-473.753 1287.81,-456.293 1141.2,-452.031"/>
<polygon fill="green" stroke="green" points="1141.03,-448.525 1130.94,-451.736 1140.83,-455.522 1141.03,-448.525"/>
</g>
<!-- C.N.3&#45;&gt;I.5 -->
<g id="edge125" class="edge"><title>C.N.3&#45;&gt;I.5</title>
<path fill="none" stroke="green" d="M1871.96,-1296.68C1852.67,-1266.12 1808.1,-1199.12 1760,-1152 1746.29,-1138.57 1728.97,-1125.85 1714.65,-1116.24"/>
<polygon fill="green" stroke="green" points="1716.46,-1113.24 1706.17,-1110.68 1712.62,-1119.09 1716.46,-1113.24"/>
</g>
<!-- C.N.4 -->
<g id="node10" class="node"><title>C.N.4</title>
<g id="a_node10"><a xlink:href="https://mathcs.clarku.edu/~djoyce/elements/bookI/cn.html" xlink:title="C.N.4">
<ellipse fill="darksalmon" stroke="black" cx="1452" cy="-1242" rx="32.4942" ry="18"/>
<text text-anchor="middle" x="1452" y="-1238.3" font-family="Times New Roman,serif" font-size="14.00">C.N.4</text>
</a>
</g>
</g>
<!-- I.4 -->
<g id="node19" class="node"><title>I.4</title>
<g id="a_node19"><a xlink:href="https://mathcs.clarku.edu/~djoyce/elements/bookI/propI4.html" xlink:title="I.4">
<ellipse fill="lightyellow" stroke="black" cx="1425" cy="-1170" rx="27" ry="18"/>
<text text-anchor="middle" x="1425" y="-1166.3" font-family="Times New Roman,serif" font-size="14.00">I.4</text>
</a>
</g>
</g>
<!-- C.N.4&#45;&gt;I.4 -->
<g id="edge10" class="edge"><title>C.N.4&#45;&gt;I.4</title>
<path fill="none" stroke="green" d="M1445.46,-1224.05C1442.38,-1216.06 1438.63,-1206.33 1435.18,-1197.4"/>
<polygon fill="green" stroke="green" points="1438.34,-1195.86 1431.48,-1187.79 1431.81,-1198.38 1438.34,-1195.86"/>
</g>
<!-- I.8 -->
<g id="node34" class="node"><title>I.8</title>
<g id="a_node34"><a xlink:href="https://mathcs.clarku.edu/~djoyce/elements/bookI/propI8.html" xlink:title="I.8">
<ellipse fill="lightyellow" stroke="black" cx="1267" cy="-954" rx="27" ry="18"/>
<text text-anchor="middle" x="1267" y="-950.3" font-family="Times New Roman,serif" font-size="14.00">I.8</text>
</a>
</g>
</g>
<!-- C.N.4&#45;&gt;I.8 -->
<g id="edge76" class="edge"><title>C.N.4&#45;&gt;I.8</title>
<path fill="none" stroke="green" d="M1458.29,-1224.25C1464.17,-1205.83 1470.72,-1175.71 1461,-1152 1427.05,-1069.13 1339.55,-1002.42 1294.58,-972.328"/>
<polygon fill="green" stroke="green" points="1296.46,-969.376 1286.18,-966.804 1292.61,-975.224 1296.46,-969.376"/>
</g>
<!-- C.N.5 -->
<g id="node11" class="node"><title>C.N.5</title>
<g id="a_node11"><a xlink:href="https://mathcs.clarku.edu/~djoyce/elements/bookI/cn.html" xlink:title="C.N.5">
<ellipse fill="darksalmon" stroke="black" cx="1230" cy="-1098" rx="32.4942" ry="18"/>
<text text-anchor="middle" x="1230" y="-1094.3" font-family="Times New Roman,serif" font-size="14.00">C.N.5</text>
</a>
</g>
</g>
<!-- C.N.5&#45;&gt;I.16 -->
<g id="edge87" class="edge"><title>C.N.5&#45;&gt;I.16</title>
<path fill="none" stroke="green" d="M1204.45,-1086.61C1187.04,-1078.01 1165.34,-1063.96 1155,-1044 1147.64,-1029.79 1152.22,-1023.76 1155,-1008 1176.65,-885.098 1239.05,-748.206 1266.16,-692.575"/>
<polygon fill="green" stroke="green" points="1269.38,-693.972 1270.65,-683.454 1263.1,-690.883 1269.38,-693.972"/>
</g>
<!-- C.N.5&#45;&gt;I.7 -->
<g id="edge108" class="edge"><title>C.N.5&#45;&gt;I.7</title>
<path fill="none" stroke="green" d="M1220.76,-1080.41C1216.09,-1072.04 1210.34,-1061.71 1205.13,-1052.37"/>
<polygon fill="green" stroke="green" points="1208.1,-1050.5 1200.18,-1043.47 1201.99,-1053.91 1208.1,-1050.5"/>
</g>
<!-- C.N.5&#45;&gt;I.20 -->
<g id="edge118" class="edge"><title>C.N.5&#45;&gt;I.20</title>
<path fill="none" stroke="green" d="M1229.43,-1079.72C1228.26,-1040.9 1226.05,-949.145 1231,-936 1313.03,-718.085 1431.03,-723.782 1574,-540 1590.44,-518.863 1607.75,-493.745 1619.89,-475.591"/>
<polygon fill="green" stroke="green" points="1623.11,-477.058 1625.73,-466.791 1617.28,-473.186 1623.11,-477.058"/>
</g>
<!-- I.Def.22 -->
<g id="node12" class="node"><title>I.Def.22</title>
<g id="a_node12"><a xlink:href="https://mathcs.clarku.edu/~djoyce/elements/bookI/defI22.html" xlink:title="I.Def.22">
<ellipse fill="greenyellow" stroke="black" cx="182" cy="-234" rx="40.0939" ry="18"/>
<text text-anchor="middle" x="182" y="-230.3" font-family="Times New Roman,serif" font-size="14.00">I.Def.22</text>
</a>
</g>
</g>
<!-- I.Def.22&#45;&gt;I.47 -->
<g id="edge4" class="edge"><title>I.Def.22&#45;&gt;I.47</title>
<path fill="none" stroke="green" d="M175.918,-216.07C172.55,-205.789 168.709,-192.314 167,-180 160.402,-132.456 160.819,-119.6 167,-72 168.133,-63.2774 170.272,-53.9451 172.544,-45.5801"/>
<polygon fill="green" stroke="green" points="175.909,-46.541 175.322,-35.9624 169.184,-44.5985 175.909,-46.541"/>
</g>
<!-- I.Def.22&#45;&gt;I.46 -->
<g id="edge29" class="edge"><title>I.Def.22&#45;&gt;I.46</title>
<path fill="none" stroke="green" d="M206.101,-219.503C226.586,-208.032 256.057,-191.528 277.863,-179.317"/>
<polygon fill="green" stroke="green" points="279.676,-182.313 286.691,-174.373 276.255,-176.206 279.676,-182.313"/>
</g>
<!-- I.Def.15 -->
<g id="node13" class="node"><title>I.Def.15</title>
<g id="a_node13"><a xlink:href="https://mathcs.clarku.edu/~djoyce/elements/bookI/defI15.html" xlink:title="I.Def.15">
<ellipse fill="greenyellow" stroke="black" cx="767" cy="-1386" rx="40.0939" ry="18"/>
<text text-anchor="middle" x="767" y="-1382.3" font-family="Times New Roman,serif" font-size="14.00">I.Def.15</text>
</a>
</g>
</g>
<!-- I.Def.15&#45;&gt;I.3 -->
<g id="edge32" class="edge"><title>I.Def.15&#45;&gt;I.3</title>
<path fill="none" stroke="green" d="M737.446,-1373.67C730.802,-1371.49 723.725,-1369.43 717,-1368 632.094,-1349.9 397.229,-1384.38 328,-1332 285.608,-1299.92 272.196,-1234.94 267.956,-1198.09"/>
<polygon fill="green" stroke="green" points="271.431,-1197.67 266.95,-1188.06 264.465,-1198.36 271.431,-1197.67"/>
</g>
<!-- I.Def.15&#45;&gt;I.1 -->
<g id="edge65" class="edge"><title>I.Def.15&#45;&gt;I.1</title>
<path fill="none" stroke="green" d="M747.277,-1370.15C733.371,-1359.69 714.618,-1345.57 699.564,-1334.24"/>
<polygon fill="green" stroke="green" points="701.288,-1331.16 691.193,-1327.94 697.078,-1336.75 701.288,-1331.16"/>
</g>
<!-- I.Def.15&#45;&gt;I.2 -->
<g id="edge72" class="edge"><title>I.Def.15&#45;&gt;I.2</title>
<path fill="none" stroke="green" d="M780.983,-1368.99C803.099,-1343.66 846.218,-1294.28 871.407,-1265.44"/>
<polygon fill="green" stroke="green" points="874.062,-1267.72 878.003,-1257.88 868.79,-1263.11 874.062,-1267.72"/>
</g>
<!-- I.Def.20 -->
<g id="node14" class="node"><title>I.Def.20</title>
<g id="a_node14"><a xlink:href="https://mathcs.clarku.edu/~djoyce/elements/bookI/defI20.html" xlink:title="I.Def.20">
<ellipse fill="greenyellow" stroke="black" cx="2126" cy="-1386" rx="40.0939" ry="18"/>
<text text-anchor="middle" x="2126" y="-1382.3" font-family="Times New Roman,serif" font-size="14.00">I.Def.20</text>
</a>
</g>
</g>
<!-- I.Def.20&#45;&gt;I.11 -->
<g id="edge37" class="edge"><title>I.Def.20&#45;&gt;I.11</title>
<path fill="none" stroke="green" d="M2085.49,-1384.53C1853.76,-1381.73 704.059,-1366.14 638,-1332 593.776,-1309.15 570,-1292.78 570,-1243 570,-1243 570,-1243 570,-1025 570,-984.971 572.009,-938.635 573.48,-910.07"/>
<polygon fill="green" stroke="green" points="576.977,-910.214 574.012,-900.042 569.987,-909.843 576.977,-910.214"/>
</g>
<!-- I.Def.20&#45;&gt;I.1 -->
<g id="edge67" class="edge"><title>I.Def.20&#45;&gt;I.1</title>
<path fill="none" stroke="green" d="M2086.03,-1383.07C1877.14,-1373 912.869,-1326.52 711.087,-1316.79"/>
<polygon fill="green" stroke="green" points="711.153,-1313.29 700.996,-1316.3 710.816,-1320.28 711.153,-1313.29"/>
</g>
<!-- I.10 -->
<g id="node41" class="node"><title>I.10</title>
<g id="a_node41"><a xlink:href="https://mathcs.clarku.edu/~djoyce/elements/bookI/propI10.html" xlink:title="I.10">
<ellipse fill="lightyellow" stroke="black" cx="1577" cy="-810" rx="27" ry="18"/>
<text text-anchor="middle" x="1577" y="-806.3" font-family="Times New Roman,serif" font-size="14.00">I.10</text>
</a>
</g>
</g>
<!-- I.Def.20&#45;&gt;I.10 -->
<g id="edge112" class="edge"><title>I.Def.20&#45;&gt;I.10</title>
<path fill="none" stroke="green" d="M2123.5,-1367.86C2120.33,-1349.37 2113.8,-1319.44 2102,-1296 2028.57,-1150.19 1994.18,-1118.49 1874,-1008 1786.38,-927.441 1662.73,-856.713 1606.68,-826.53"/>
<polygon fill="green" stroke="green" points="1608.12,-823.332 1597.65,-821.705 1604.82,-829.505 1608.12,-823.332"/>
</g>
<!-- I.Def.20&#45;&gt;I.5 -->
<g id="edge120" class="edge"><title>I.Def.20&#45;&gt;I.5</title>
<path fill="none" stroke="green" d="M2110.13,-1369.26C2091.02,-1350.7 2057.54,-1319.41 2026,-1296 1919.38,-1216.86 1778.42,-1143.95 1717.35,-1113.72"/>
<polygon fill="green" stroke="green" points="1718.78,-1110.52 1708.26,-1109.24 1715.68,-1116.8 1718.78,-1110.52"/>
</g>
<!-- I.Def.20&#45;&gt;I.9 -->
<g id="edge129" class="edge"><title>I.Def.20&#45;&gt;I.9</title>
<path fill="none" stroke="green" d="M2137.45,-1368.55C2163.95,-1328.26 2223.87,-1222.78 2178,-1152 2046.85,-949.604 1723.68,-898.107 1614.06,-886.254"/>
<polygon fill="green" stroke="green" points="1614.14,-882.744 1603.84,-885.198 1613.42,-889.707 1614.14,-882.744"/>
</g>
<!-- I.Def.10 -->
<g id="node15" class="node"><title>I.Def.10</title>
<g id="a_node15"><a xlink:href="https://mathcs.clarku.edu/~djoyce/elements/bookI/defI10.html" xlink:title="I.Def.10">
<ellipse fill="greenyellow" stroke="black" cx="790" cy="-954" rx="40.0939" ry="18"/>
<text text-anchor="middle" x="790" y="-950.3" font-family="Times New Roman,serif" font-size="14.00">I.Def.10</text>
</a>
</g>
</g>
<!-- I.Def.10&#45;&gt;I.11 -->
<g id="edge39" class="edge"><title>I.Def.10&#45;&gt;I.11</title>
<path fill="none" stroke="green" d="M758.276,-942.671C718.133,-929.602 649.307,-907.193 608.389,-893.871"/>
<polygon fill="green" stroke="green" points="609.461,-890.539 598.869,-890.771 607.294,-897.195 609.461,-890.539"/>
</g>
<!-- I.Def.10&#45;&gt;I.13 -->
<g id="edge40" class="edge"><title>I.Def.10&#45;&gt;I.13</title>
<path fill="none" stroke="green" d="M794.222,-935.871C800.213,-911.564 811.242,-866.819 818.342,-838.013"/>
<polygon fill="green" stroke="green" points="821.768,-838.736 820.763,-828.189 814.972,-837.061 821.768,-838.736"/>
</g>
<!-- I.Def.23 -->
<g id="node16" class="node"><title>I.Def.23</title>
<g id="a_node16"><a xlink:href="https://mathcs.clarku.edu/~djoyce/elements/bookI/defI23.html" xlink:title="I.Def.23">
<ellipse fill="greenyellow" stroke="black" cx="726" cy="-666" rx="40.0939" ry="18"/>
<text text-anchor="middle" x="726" y="-662.3" font-family="Times New Roman,serif" font-size="14.00">I.Def.23</text>
</a>
</g>
</g>
<!-- I.27 -->
<g id="node28" class="node"><title>I.27</title>
<g id="a_node28"><a xlink:href="https://mathcs.clarku.edu/~djoyce/elements/bookI/propI27.html" xlink:title="I.27">
<ellipse fill="lightyellow" stroke="black" cx="734" cy="-594" rx="27" ry="18"/>
<text text-anchor="middle" x="734" y="-590.3" font-family="Times New Roman,serif" font-size="14.00">I.27</text>
</a>
</g>
</g>
<!-- I.Def.23&#45;&gt;I.27 -->
<g id="edge48" class="edge"><title>I.Def.23&#45;&gt;I.27</title>
<path fill="none" stroke="green" d="M727.978,-647.697C728.859,-639.983 729.919,-630.712 730.901,-622.112"/>
<polygon fill="green" stroke="green" points="734.387,-622.437 732.045,-612.104 727.432,-621.642 734.387,-622.437"/>
</g>
<!-- I.Def.16 -->
<g id="node17" class="node"><title>I.Def.16</title>
<g id="a_node17"><a xlink:href="https://mathcs.clarku.edu/~djoyce/elements/bookI/defI15.html" xlink:title="I.Def.16">
<ellipse fill="greenyellow" stroke="black" cx="444" cy="-450" rx="40.0939" ry="18"/>
<text text-anchor="middle" x="444" y="-446.3" font-family="Times New Roman,serif" font-size="14.00">I.Def.16</text>
</a>
</g>
</g>
<!-- I.Def.16&#45;&gt;I.22 -->
<g id="edge93" class="edge"><title>I.Def.16&#45;&gt;I.22</title>
<path fill="none" stroke="green" d="M462.01,-433.811C474.092,-423.622 490.134,-410.092 503.257,-399.024"/>
<polygon fill="green" stroke="green" points="505.601,-401.626 510.989,-392.503 501.088,-396.275 505.601,-401.626"/>
</g>
<!-- I.4&#45;&gt;I.47 -->
<g id="edge8" class="edge"><title>I.4&#45;&gt;I.47</title>
<path fill="none" stroke="green" d="M1415.18,-1153.21C1409.07,-1142.9 1401.37,-1128.99 1396,-1116 1370.52,-1054.4 1363.43,-1038 1354,-972 1351.74,-956.161 1352.42,-951.922 1354,-936 1366.06,-814.657 1408,-788.941 1408,-667 1408,-667 1408,-667 1408,-161 1408,-38.0854 423.832,-21.4374 218.331,-19.3009"/>
<polygon fill="green" stroke="green" points="218.092,-15.7985 208.058,-19.1996 218.023,-22.7981 218.092,-15.7985"/>
</g>
<!-- I.4&#45;&gt;I.34 -->
<g id="edge57" class="edge"><title>I.4&#45;&gt;I.34</title>
<path fill="none" stroke="green" d="M1408.62,-1155.66C1372.74,-1125.8 1286.06,-1050.06 1231,-972 1159.28,-870.314 1170.24,-828.319 1109,-720 1071.38,-653.469 1063.17,-635.339 1015,-576 1005.94,-564.839 994.83,-553.442 985.127,-544.09"/>
<polygon fill="green" stroke="green" points="987.381,-541.404 977.712,-537.072 982.569,-546.488 987.381,-541.404"/>
</g>
<!-- I.4&#45;&gt;I.16 -->
<g id="edge86" class="edge"><title>I.4&#45;&gt;I.16</title>
<path fill="none" stroke="green" d="M1420.06,-1152.01C1398.55,-1078.04 1312.95,-783.74 1286.7,-693.467"/>
<polygon fill="green" stroke="green" points="1290.02,-692.355 1283.87,-683.73 1283.3,-694.309 1290.02,-692.355"/>
</g>
<!-- I.4&#45;&gt;I.26 -->
<g id="edge97" class="edge"><title>I.4&#45;&gt;I.26</title>
<path fill="none" stroke="green" d="M1425.65,-1151.58C1427.4,-1081.93 1426.03,-818.949 1315,-648 1305.15,-632.828 1289.41,-620.252 1275.45,-611.164"/>
<polygon fill="green" stroke="green" points="1276.96,-607.983 1266.62,-605.703 1273.28,-613.938 1276.96,-607.983"/>
</g>
<!-- I.4&#45;&gt;I.35 -->
<g id="edge104" class="edge"><title>I.4&#45;&gt;I.35</title>
<path fill="none" stroke="green" d="M1430.44,-1151.96C1433.59,-1141.64 1437.41,-1128.16 1440,-1116 1468.49,-982.037 1484,-947.959 1484,-811 1484,-811 1484,-811 1484,-593 1484,-520.026 1234.99,-472.146 1140.12,-456.552"/>
<polygon fill="green" stroke="green" points="1140.55,-453.076 1130.12,-454.934 1139.43,-459.986 1140.55,-453.076"/>
</g>
<!-- I.4&#45;&gt;I.10 -->
<g id="edge113" class="edge"><title>I.4&#45;&gt;I.10</title>
<path fill="none" stroke="green" d="M1450.79,-1164.11C1476.24,-1157.77 1513.9,-1144.04 1532,-1116 1592.79,-1021.85 1506.15,-970.516 1541,-864 1544.48,-853.375 1550.77,-842.924 1557.14,-834.148"/>
<polygon fill="green" stroke="green" points="1560.09,-836.044 1563.42,-825.986 1554.55,-831.773 1560.09,-836.044"/>
</g>
<!-- I.4&#45;&gt;I.5 -->
<g id="edge124" class="edge"><title>I.4&#45;&gt;I.5</title>
<path fill="none" stroke="green" d="M1449.65,-1162.41C1496.56,-1149.88 1598.78,-1122.57 1652.48,-1108.22"/>
<polygon fill="green" stroke="green" points="1653.47,-1111.58 1662.23,-1105.62 1651.66,-1104.82 1653.47,-1111.58"/>
</g>
<!-- I.14&#45;&gt;I.47 -->
<g id="edge5" class="edge"><title>I.14&#45;&gt;I.47</title>
<path fill="none" stroke="green" d="M572.268,-722.574C496.907,-648.607 157.1,-313.01 133,-252 104.434,-179.684 143.842,-87.7213 166.696,-44.1175"/>
<polygon fill="green" stroke="green" points="169.901,-45.5475 171.561,-35.0834 163.738,-42.2285 169.901,-45.5475"/>
</g>
<!-- I.31&#45;&gt;I.47 -->
<g id="edge2" class="edge"><title>I.31&#45;&gt;I.47</title>
<path fill="none" stroke="green" d="M500.525,-230.175C442.87,-223.605 308.156,-205.868 271,-180 224.357,-147.527 199.13,-82.6969 188.043,-45.9826"/>
<polygon fill="green" stroke="green" points="191.296,-44.6314 185.166,-35.9902 184.569,-46.5682 191.296,-44.6314"/>
</g>
<!-- I.31&#45;&gt;I.46 -->
<g id="edge25" class="edge"><title>I.31&#45;&gt;I.46</title>
<path fill="none" stroke="green" d="M503.037,-225.376C463.694,-212.857 385.311,-187.917 340.494,-173.657"/>
<polygon fill="green" stroke="green" points="341.524,-170.312 330.933,-170.615 339.401,-176.982 341.524,-170.312"/>
</g>
<!-- I.31&#45;&gt;I.37 -->
<g id="edge59" class="edge"><title>I.31&#45;&gt;I.37</title>
<path fill="none" stroke="green" d="M552.187,-227.331C607.39,-214.906 739.164,-185.246 802.637,-170.959"/>
<polygon fill="green" stroke="green" points="803.591,-174.333 812.578,-168.722 802.053,-167.503 803.591,-174.333"/>
</g>
<!-- I.41&#45;&gt;I.47 -->
<g id="edge9" class="edge"><title>I.41&#45;&gt;I.47</title>
<path fill="none" stroke="green" d="M789.753,-81.7694C777.364,-78.3271 761.988,-74.4393 748,-72 550.086,-37.4865 309.12,-24.3709 218.147,-20.429"/>
<polygon fill="green" stroke="green" points="218.197,-16.9281 208.059,-20.0032 217.902,-23.9219 218.197,-16.9281"/>
</g>
<!-- I.46&#45;&gt;I.47 -->
<g id="edge1" class="edge"><title>I.46&#45;&gt;I.47</title>
<path fill="none" stroke="green" d="M293.754,-146.072C271.692,-121.208 227.281,-71.1575 201.264,-41.8374"/>
<polygon fill="green" stroke="green" points="203.703,-39.3124 194.448,-34.1555 198.467,-43.9584 203.703,-39.3124"/>
</g>
<!-- I.3&#45;&gt;I.46 -->
<g id="edge24" class="edge"><title>I.3&#45;&gt;I.46</title>
<path fill="none" stroke="green" d="M243.244,-1160.24C200.841,-1142.25 114,-1096.88 114,-1027 114,-1027 114,-1027 114,-449 114,-372.322 127.821,-347.651 176,-288 194.357,-265.272 209.07,-271.303 231,-252 253.484,-232.209 275.276,-205.697 289.716,-186.769"/>
<polygon fill="green" stroke="green" points="292.602,-188.754 295.81,-178.657 287.005,-184.55 292.602,-188.754"/>
</g>
<!-- I.3&#45;&gt;I.11 -->
<g id="edge34" class="edge"><title>I.3&#45;&gt;I.11</title>
<path fill="none" stroke="green" d="M281.323,-1154.82C331.671,-1108.22 492.199,-959.638 552.138,-904.16"/>
<polygon fill="green" stroke="green" points="554.623,-906.63 559.584,-897.268 549.868,-901.492 554.623,-906.63"/>
</g>
<!-- I.3&#45;&gt;I.16 -->
<g id="edge84" class="edge"><title>I.3&#45;&gt;I.16</title>
<path fill="none" stroke="green" d="M247.851,-1156.51C235.738,-1146.99 220.827,-1132.71 214,-1116 194.751,-1068.9 221.413,-1048.67 252,-1008 362.908,-860.546 382.502,-795.179 551,-720 582.824,-705.801 1097.57,-676.866 1241.74,-669.008"/>
<polygon fill="green" stroke="green" points="1242.06,-672.496 1251.85,-668.458 1241.68,-665.506 1242.06,-672.496"/>
</g>
<!-- I.3&#45;&gt;I.22 -->
<g id="edge90" class="edge"><title>I.3&#45;&gt;I.22</title>
<path fill="none" stroke="green" d="M258.492,-1152.34C247.418,-1126.2 228,-1073.7 228,-1027 228,-1027 228,-1027 228,-737 228,-582.455 279.408,-534.58 395,-432 422.472,-407.62 462.579,-393.679 491.366,-386.277"/>
<polygon fill="green" stroke="green" points="492.523,-389.598 501.415,-383.838 490.872,-382.795 492.523,-389.598"/>
</g>
<!-- I.3&#45;&gt;I.26 -->
<g id="edge95" class="edge"><title>I.3&#45;&gt;I.26</title>
<path fill="none" stroke="green" d="M266.385,-1151.94C268.975,-1083.04 288.912,-823.933 442,-720 503.58,-678.192 702.081,-698.926 775,-684 828.717,-673.005 839.522,-660.103 893,-648 1006.94,-622.213 1144.48,-605.665 1209.09,-598.732"/>
<polygon fill="green" stroke="green" points="1209.61,-602.197 1219.18,-597.664 1208.87,-595.236 1209.61,-602.197"/>
</g>
<!-- I.3&#45;&gt;I.20 -->
<g id="edge115" class="edge"><title>I.3&#45;&gt;I.20</title>
<path fill="none" stroke="green" d="M262.818,-1152.05C251.754,-1087.68 221.196,-855.246 328,-720 437.362,-581.515 526.822,-618.851 698,-576 828.27,-543.389 864.826,-557.278 998,-540 1227.3,-510.251 1502.36,-470.504 1599.71,-456.312"/>
<polygon fill="green" stroke="green" points="1600.5,-459.732 1609.89,-454.825 1599.49,-452.806 1600.5,-459.732"/>
</g>
<!-- I.3&#45;&gt;I.5 -->
<g id="edge122" class="edge"><title>I.3&#45;&gt;I.5</title>
<path fill="none" stroke="green" d="M292.805,-1167.68C467.793,-1159.06 1446.59,-1110.84 1649.98,-1100.82"/>
<polygon fill="green" stroke="green" points="1650.33,-1104.31 1660.15,-1100.32 1649.99,-1097.32 1650.33,-1104.31"/>
</g>
<!-- I.3&#45;&gt;I.9 -->
<g id="edge126" class="edge"><title>I.3&#45;&gt;I.9</title>
<path fill="none" stroke="green" d="M292.969,-1168.53C489.717,-1165.08 1697.18,-1142.78 1723,-1116 1734.11,-1104.48 1728.02,-1095.19 1723,-1080 1716.42,-1060.07 1633.38,-953.99 1595.55,-906.278"/>
<polygon fill="green" stroke="green" points="1598.21,-904.001 1589.25,-898.347 1592.73,-908.354 1598.21,-904.001"/>
</g>
<!-- I.3&#45;&gt;I.18 -->
<g id="edge133" class="edge"><title>I.3&#45;&gt;I.18</title>
<path fill="none" stroke="green" d="M293.046,-1168.54C487.85,-1165.2 1671.09,-1143.78 1741,-1116 1898.04,-1053.6 1968,-979.979 1968,-811 1968,-811 1968,-811 1968,-737 1968,-695.406 1952.6,-649.217 1941.4,-621.143"/>
<polygon fill="green" stroke="green" points="1944.55,-619.581 1937.51,-611.662 1938.07,-622.242 1944.55,-619.581"/>
</g>
<!-- I.11&#45;&gt;I.46 -->
<g id="edge23" class="edge"><title>I.11&#45;&gt;I.46</title>
<path fill="none" stroke="green" d="M548.311,-878.873C491.006,-873.755 358.884,-858.83 328,-828 229.844,-730.014 262,-661.693 262,-523 262,-523 262,-523 262,-449 262,-352.567 287.274,-240.044 299.94,-189.708"/>
<polygon fill="green" stroke="green" points="303.351,-190.494 302.438,-179.939 296.569,-188.76 303.351,-190.494"/>
</g>
<!-- I.11&#45;&gt;I.13 -->
<g id="edge41" class="edge"><title>I.11&#45;&gt;I.13</title>
<path fill="none" stroke="green" d="M599.426,-874.161C644.14,-861.641 739.256,-835.008 790.532,-820.651"/>
<polygon fill="green" stroke="green" points="791.789,-823.934 800.475,-817.867 789.901,-817.193 791.789,-823.934"/>
</g>
<!-- I.13&#45;&gt;I.14 -->
<g id="edge12" class="edge"><title>I.13&#45;&gt;I.14</title>
<path fill="none" stroke="green" d="M800.87,-801.903C758.283,-789.377 669.695,-763.322 620.958,-748.988"/>
<polygon fill="green" stroke="green" points="621.776,-745.58 611.194,-746.116 619.8,-752.295 621.776,-745.58"/>
</g>
<!-- I.13&#45;&gt;I.29 -->
<g id="edge49" class="edge"><title>I.13&#45;&gt;I.29</title>
<path fill="none" stroke="green" d="M827.794,-791.818C831.576,-772.751 839.802,-741.802 856,-720 867.37,-704.696 884.434,-691.962 899.205,-682.815"/>
<polygon fill="green" stroke="green" points="901.21,-685.696 908.035,-677.592 897.646,-679.671 901.21,-685.696"/>
</g>
<!-- I.13&#45;&gt;I.15 -->
<g id="edge77" class="edge"><title>I.13&#45;&gt;I.15</title>
<path fill="none" stroke="green" d="M848.922,-801.381C878.764,-791.686 931.197,-774.026 975,-756 976.822,-755.25 978.684,-754.457 980.555,-753.639"/>
<polygon fill="green" stroke="green" points="982.177,-756.746 989.839,-749.43 979.286,-750.371 982.177,-756.746"/>
</g>
<!-- I.23&#45;&gt;I.31 -->
<g id="edge17" class="edge"><title>I.23&#45;&gt;I.31</title>
<path fill="none" stroke="green" d="M527,-287.697C527,-279.983 527,-270.712 527,-262.112"/>
<polygon fill="green" stroke="green" points="530.5,-262.104 527,-252.104 523.5,-262.104 530.5,-262.104"/>
</g>
<!-- I.27&#45;&gt;I.31 -->
<g id="edge19" class="edge"><title>I.27&#45;&gt;I.31</title>
<path fill="none" stroke="green" d="M734,-575.951C734,-549.292 734,-496.115 734,-451 734,-451 734,-451 734,-377 734,-294.981 622.126,-256.811 562.867,-242.346"/>
<polygon fill="green" stroke="green" points="563.332,-238.86 552.798,-239.992 561.739,-245.677 563.332,-238.86"/>
</g>
<!-- I.29&#45;&gt;I.46 -->
<g id="edge27" class="edge"><title>I.29&#45;&gt;I.46</title>
<path fill="none" stroke="green" d="M923.252,-648.027C902.952,-590.331 829.353,-399.188 710,-288 604.29,-189.522 422.269,-168.589 344.259,-164.169"/>
<polygon fill="green" stroke="green" points="344.125,-160.657 333.961,-163.648 343.771,-167.648 344.125,-160.657"/>
</g>
<!-- I.29&#45;&gt;I.34 -->
<g id="edge54" class="edge"><title>I.29&#45;&gt;I.34</title>
<path fill="none" stroke="green" d="M932.915,-648.153C938.572,-623.813 949.086,-578.568 955.803,-549.665"/>
<polygon fill="green" stroke="green" points="959.235,-550.358 958.09,-539.825 952.417,-548.773 959.235,-550.358"/>
</g>
<!-- I.29&#45;&gt;I.35 -->
<g id="edge103" class="edge"><title>I.29&#45;&gt;I.35</title>
<path fill="none" stroke="green" d="M941.306,-649.952C971.492,-613.039 1049.36,-517.821 1085.3,-473.863"/>
<polygon fill="green" stroke="green" points="1088.09,-475.988 1091.71,-466.031 1082.67,-471.557 1088.09,-475.988"/>
</g>
<!-- I.34&#45;&gt;I.41 -->
<g id="edge22" class="edge"><title>I.34&#45;&gt;I.41</title>
<path fill="none" stroke="green" d="M962,-503.802C962,-467.463 962,-380.191 962,-307 962,-307 962,-307 962,-233 962,-169.108 889.294,-125.021 845.801,-104.364"/>
<polygon fill="green" stroke="green" points="847.026,-101.075 836.478,-100.08 844.104,-107.436 847.026,-101.075"/>
</g>
<!-- I.34&#45;&gt;I.46 -->
<g id="edge26" class="edge"><title>I.34&#45;&gt;I.46</title>
<path fill="none" stroke="green" d="M956.119,-504.369C940.648,-462.745 895.049,-352.773 824,-288 768.76,-237.639 743.559,-237.611 672,-216 555.629,-180.857 411.127,-168.69 344.214,-164.748"/>
<polygon fill="green" stroke="green" points="344.337,-161.25 334.157,-164.184 343.945,-168.239 344.337,-161.25"/>
</g>
<!-- I.34&#45;&gt;I.37 -->
<g id="edge61" class="edge"><title>I.34&#45;&gt;I.37</title>
<path fill="none" stroke="green" d="M969.508,-504.338C980.582,-478.197 1000,-425.702 1000,-379 1000,-379 1000,-379 1000,-305 1000,-237.087 918.494,-194.074 871.108,-174.805"/>
<polygon fill="green" stroke="green" points="872.144,-171.451 861.556,-171.053 869.584,-177.967 872.144,-171.451"/>
</g>
<!-- I.34&#45;&gt;I.35 -->
<g id="edge100" class="edge"><title>I.34&#45;&gt;I.35</title>
<path fill="none" stroke="green" d="M983.259,-510.52C1007.21,-498.716 1046.32,-479.433 1073.52,-466.026"/>
<polygon fill="green" stroke="green" points="1075.17,-469.112 1082.6,-461.551 1072.08,-462.834 1075.17,-469.112"/>
</g>
<!-- I.37&#45;&gt;I.41 -->
<g id="edge21" class="edge"><title>I.37&#45;&gt;I.41</title>
<path fill="none" stroke="green" d="M832.19,-144.055C829.449,-136.059 826.113,-126.331 823.051,-117.4"/>
<polygon fill="green" stroke="green" points="826.31,-116.113 819.756,-107.789 819.689,-118.384 826.31,-116.113"/>
</g>
<!-- I.1&#45;&gt;I.11 -->
<g id="edge35" class="edge"><title>I.1&#45;&gt;I.11</title>
<path fill="none" stroke="green" d="M659.702,-1298.38C650.589,-1288.33 639.185,-1274.26 632,-1260 613.564,-1223.41 608,-1211.97 608,-1171 608,-1171 608,-1171 608,-1025 608,-983.749 594.624,-937.466 584.904,-909.279"/>
<polygon fill="green" stroke="green" points="588.166,-908.007 581.52,-899.756 581.57,-910.351 588.166,-908.007"/>
</g>
<!-- I.1&#45;&gt;I.2 -->
<g id="edge69" class="edge"><title>I.1&#45;&gt;I.2</title>
<path fill="none" stroke="green" d="M695.971,-1303.41C702.084,-1300.88 708.759,-1298.23 715,-1296 763.417,-1278.72 820.594,-1262.2 856.333,-1252.33"/>
<polygon fill="green" stroke="green" points="857.543,-1255.62 866.261,-1249.6 855.691,-1248.87 857.543,-1255.62"/>
</g>
<!-- I.1&#45;&gt;I.10 -->
<g id="edge110" class="edge"><title>I.1&#45;&gt;I.10</title>
<path fill="none" stroke="green" d="M700.968,-1312.92C776.389,-1311.15 984,-1295.02 984,-1171 984,-1171 984,-1171 984,-1097 984,-849.082 1409.7,-815.961 1539.73,-811.627"/>
<polygon fill="green" stroke="green" points="1540.09,-815.118 1549.98,-811.326 1539.88,-808.121 1540.09,-815.118"/>
</g>
<!-- I.1&#45;&gt;I.9 -->
<g id="edge128" class="edge"><title>I.1&#45;&gt;I.9</title>
<path fill="none" stroke="green" d="M700.923,-1311.82C770.017,-1308.29 951.444,-1295.76 998,-1260 1067.57,-1206.56 1028.2,-1151.52 1079,-1080 1105.95,-1042.07 1114.13,-1030.25 1155,-1008 1214.46,-975.634 1237.87,-990.47 1303,-972 1390.97,-947.053 1493.02,-912.35 1544.19,-894.546"/>
<polygon fill="green" stroke="green" points="1545.44,-897.818 1553.73,-891.219 1543.13,-891.209 1545.44,-897.818"/>
</g>
<!-- I.2&#45;&gt;I.3 -->
<g id="edge30" class="edge"><title>I.2&#45;&gt;I.3</title>
<path fill="none" stroke="green" d="M864.544,-1238.04C765.521,-1226.95 416.617,-1187.87 302.454,-1175.08"/>
<polygon fill="green" stroke="green" points="302.79,-1171.6 292.463,-1173.96 302.011,-1178.56 302.79,-1171.6"/>
</g>
<!-- I.8&#45;&gt;I.11 -->
<g id="edge38" class="edge"><title>I.8&#45;&gt;I.11</title>
<path fill="none" stroke="green" d="M1240.3,-950.299C1133.26,-939.471 735.091,-899.194 611.698,-886.712"/>
<polygon fill="green" stroke="green" points="611.925,-883.217 601.624,-885.693 611.221,-890.182 611.925,-883.217"/>
</g>
<!-- I.8&#45;&gt;I.23 -->
<g id="edge46" class="edge"><title>I.8&#45;&gt;I.23</title>
<path fill="none" stroke="green" d="M1255.09,-937.459C1241.02,-919.353 1216.67,-888.763 1194,-864 1132.24,-796.544 1114.05,-782.195 1047,-720 868.759,-554.675 631.33,-381.485 553.162,-325.564"/>
<polygon fill="green" stroke="green" points="555.019,-322.589 544.847,-319.628 550.952,-328.287 555.019,-322.589"/>
</g>
<!-- I.8&#45;&gt;I.9 -->
<g id="edge130" class="edge"><title>I.8&#45;&gt;I.9</title>
<path fill="none" stroke="green" d="M1292.11,-947.331C1347.13,-934.906 1478.48,-905.246 1541.75,-890.959"/>
<polygon fill="green" stroke="green" points="1542.68,-894.339 1551.66,-888.722 1541.13,-887.511 1542.68,-894.339"/>
</g>
<!-- I.15&#45;&gt;I.29 -->
<g id="edge51" class="edge"><title>I.15&#45;&gt;I.29</title>
<path fill="none" stroke="green" d="M994.799,-723.17C982.817,-712.942 966.309,-698.849 952.825,-687.338"/>
<polygon fill="green" stroke="green" points="954.766,-684.394 944.888,-680.563 950.221,-689.717 954.766,-684.394"/>
</g>
<!-- I.15&#45;&gt;I.16 -->
<g id="edge85" class="edge"><title>I.15&#45;&gt;I.16</title>
<path fill="none" stroke="green" d="M1035.73,-730.54C1083.7,-718.012 1189.45,-690.389 1244.37,-676.045"/>
<polygon fill="green" stroke="green" points="1245.54,-679.358 1254.33,-673.444 1243.77,-672.585 1245.54,-679.358"/>
</g>
<!-- I.16&#45;&gt;I.27 -->
<g id="edge47" class="edge"><title>I.16&#45;&gt;I.27</title>
<path fill="none" stroke="green" d="M1252.71,-661.624C1163.69,-650.189 873.399,-612.904 770.54,-599.693"/>
<polygon fill="green" stroke="green" points="770.706,-596.186 760.341,-598.383 769.814,-603.129 770.706,-596.186"/>
</g>
<!-- I.16&#45;&gt;I.26 -->
<g id="edge99" class="edge"><title>I.16&#45;&gt;I.26</title>
<path fill="none" stroke="green" d="M1271.18,-648.411C1267.28,-640.129 1262.46,-629.925 1258.1,-620.662"/>
<polygon fill="green" stroke="green" points="1261.19,-619.023 1253.76,-611.47 1254.86,-622.008 1261.19,-619.023"/>
</g>
<!-- I.16&#45;&gt;I.18 -->
<g id="edge135" class="edge"><title>I.16&#45;&gt;I.18</title>
<path fill="none" stroke="green" d="M1305.73,-662.125C1408.16,-651.112 1775.7,-611.591 1893.44,-598.931"/>
<polygon fill="green" stroke="green" points="1893.83,-602.409 1903.4,-597.86 1893.09,-595.449 1893.83,-602.409"/>
</g>
<!-- I.22&#45;&gt;I.23 -->
<g id="edge45" class="edge"><title>I.22&#45;&gt;I.23</title>
<path fill="none" stroke="green" d="M527,-359.697C527,-351.983 527,-342.712 527,-334.112"/>
<polygon fill="green" stroke="green" points="530.5,-334.104 527,-324.104 523.5,-334.104 530.5,-334.104"/>
</g>
<!-- I.26&#45;&gt;I.34 -->
<g id="edge55" class="edge"><title>I.26&#45;&gt;I.34</title>
<path fill="none" stroke="green" d="M1220.8,-586.788C1169.96,-574.257 1055.02,-545.928 996.963,-531.618"/>
<polygon fill="green" stroke="green" points="997.694,-528.193 987.147,-529.198 996.018,-534.99 997.694,-528.193"/>
</g>
<!-- I.35&#45;&gt;I.37 -->
<g id="edge60" class="edge"><title>I.35&#45;&gt;I.37</title>
<path fill="none" stroke="green" d="M1102.44,-431.823C1097.6,-388.935 1079.05,-276.275 1014,-216 975.728,-180.536 914.547,-168.753 875.334,-164.868"/>
<polygon fill="green" stroke="green" points="875.401,-161.361 865.137,-163.986 874.798,-168.335 875.401,-161.361"/>
</g>
<!-- I.7&#45;&gt;I.8 -->
<g id="edge75" class="edge"><title>I.7&#45;&gt;I.8</title>
<path fill="none" stroke="green" d="M1206.38,-1010.83C1217.2,-1000.87 1231.86,-987.369 1244.05,-976.137"/>
<polygon fill="green" stroke="green" points="1246.66,-978.494 1251.64,-969.144 1241.92,-973.345 1246.66,-978.494"/>
</g>
<!-- I.10&#45;&gt;I.16 -->
<g id="edge81" class="edge"><title>I.10&#45;&gt;I.16</title>
<path fill="none" stroke="green" d="M1555.57,-798.788C1503.48,-773.969 1370.11,-710.414 1309.63,-681.597"/>
<polygon fill="green" stroke="green" points="1310.77,-678.262 1300.24,-677.12 1307.76,-684.581 1310.77,-678.262"/>
</g>
<!-- I.20&#45;&gt;I.22 -->
<g id="edge88" class="edge"><title>I.20&#45;&gt;I.22</title>
<path fill="none" stroke="green" d="M1610.22,-443.771C1590.09,-439.894 1561.38,-434.814 1536,-432 1157.88,-390.072 696.264,-381.146 564.001,-379.397"/>
<polygon fill="green" stroke="green" points="564.032,-375.898 553.988,-379.271 563.943,-382.897 564.032,-375.898"/>
</g>
<!-- I.5&#45;&gt;I.7 -->
<g id="edge107" class="edge"><title>I.5&#45;&gt;I.7</title>
<path fill="none" stroke="green" d="M1660.68,-1093.29C1577.87,-1081.6 1322.47,-1045.55 1227.27,-1032.12"/>
<polygon fill="green" stroke="green" points="1227.64,-1028.64 1217.25,-1030.71 1226.67,-1035.57 1227.64,-1028.64"/>
</g>
<!-- I.5&#45;&gt;I.20 -->
<g id="edge117" class="edge"><title>I.5&#45;&gt;I.20</title>
<path fill="none" stroke="green" d="M1693.11,-1080.47C1713.52,-1023.74 1778,-831.44 1778,-667 1778,-667 1778,-667 1778,-593 1778,-530.767 1708.96,-486.283 1667.16,-465.052"/>
<polygon fill="green" stroke="green" points="1668.71,-461.91 1658.19,-460.636 1665.62,-468.191 1668.71,-461.91"/>
</g>
<!-- I.19 -->
<g id="node45" class="node"><title>I.19</title>
<g id="a_node45"><a xlink:href="https://mathcs.clarku.edu/~djoyce/elements/bookI/propI19.html" xlink:title="I.19">
<ellipse fill="lightyellow" stroke="black" cx="1854" cy="-522" rx="27" ry="18"/>
<text text-anchor="middle" x="1854" y="-518.3" font-family="Times New Roman,serif" font-size="14.00">I.19</text>
</a>
</g>
</g>
<!-- I.5&#45;&gt;I.19 -->
<g id="edge131" class="edge"><title>I.5&#45;&gt;I.19</title>
<path fill="none" stroke="green" d="M1701.57,-1082.68C1720.05,-1064.71 1753.12,-1033.2 1783,-1008 1803.11,-991.037 1815.35,-993.86 1830,-972 1852.8,-937.964 1854,-923.969 1854,-883 1854,-883 1854,-883 1854,-665 1854,-624.996 1854,-578.653 1854,-550.08"/>
<polygon fill="green" stroke="green" points="1857.5,-550.049 1854,-540.049 1850.5,-550.049 1857.5,-550.049"/>
</g>
<!-- I.5&#45;&gt;I.18 -->
<g id="edge136" class="edge"><title>I.5&#45;&gt;I.18</title>
<path fill="none" stroke="green" d="M1708.83,-1087.31C1746.38,-1069.6 1823.47,-1028.56 1868,-972 1915.44,-911.755 1930,-887.678 1930,-811 1930,-811 1930,-811 1930,-737 1930,-696.996 1930,-650.653 1930,-622.08"/>
<polygon fill="green" stroke="green" points="1933.5,-622.049 1930,-612.049 1926.5,-622.049 1933.5,-622.049"/>
</g>
<!-- I.9&#45;&gt;I.10 -->
<g id="edge111" class="edge"><title>I.9&#45;&gt;I.10</title>
<path fill="none" stroke="green" d="M1577,-863.697C1577,-855.983 1577,-846.712 1577,-838.112"/>
<polygon fill="green" stroke="green" points="1580.5,-838.104 1577,-828.104 1573.5,-838.104 1580.5,-838.104"/>
</g>
<!-- I.19&#45;&gt;I.20 -->
<g id="edge119" class="edge"><title>I.19&#45;&gt;I.20</title>
<path fill="none" stroke="green" d="M1830.26,-513.376C1791.35,-500.883 1713.92,-476.022 1669.47,-461.747"/>
<polygon fill="green" stroke="green" points="1670.31,-458.34 1659.72,-458.615 1668.17,-465.005 1670.31,-458.34"/>
</g>
<!-- I.18&#45;&gt;I.19 -->
<g id="edge132" class="edge"><title>I.18&#45;&gt;I.19</title>
<path fill="none" stroke="green" d="M1914.62,-578.834C1903.8,-568.872 1889.14,-555.369 1876.95,-544.137"/>
<polygon fill="green" stroke="green" points="1879.08,-541.345 1869.36,-537.144 1874.34,-546.494 1879.08,-541.345"/>
</g>
</g>
</svg>
